G04 #@! TF.GenerationSoftware,KiCad,Pcbnew,(5.1.0)-1*
G04 #@! TF.CreationDate,2019-04-09T08:08:05-05:00*
G04 #@! TF.ProjectId,prelude,7072656c-7564-4652-9e6b-696361645f70,rev?*
G04 #@! TF.SameCoordinates,Original*
G04 #@! TF.FileFunction,Copper,L2,Bot*
G04 #@! TF.FilePolarity,Positive*
%FSLAX46Y46*%
G04 Gerber Fmt 4.6, Leading zero omitted, Abs format (unit mm)*
G04 Created by KiCad (PCBNEW (5.1.0)-1) date 2019-04-09 08:08:05*
%MOMM*%
%LPD*%
G04 APERTURE LIST*
%ADD10O,1.000000X2.100000*%
%ADD11O,1.000000X1.800000*%
%ADD12C,0.889000*%
%ADD13C,0.685800*%
%ADD14C,0.254000*%
%ADD15C,0.152400*%
G04 APERTURE END LIST*
D10*
X179320000Y-46950000D03*
X170680000Y-46950000D03*
D11*
X179320000Y-42770000D03*
X170680000Y-42770000D03*
D12*
X156500000Y-48940000D03*
X155249998Y-48940000D03*
X153999998Y-48940000D03*
X152749998Y-48940000D03*
X170741888Y-63640002D03*
X170600000Y-58800000D03*
X153800002Y-71400000D03*
D13*
X158200000Y-71400000D03*
D12*
X185000000Y-82990000D03*
X171390000Y-76710000D03*
X172880000Y-50570000D03*
X179900000Y-49390000D03*
X180297500Y-70587500D03*
X157750000Y-48940000D03*
X156500000Y-52690000D03*
X155250000Y-52690000D03*
X154000000Y-52690000D03*
X152750000Y-52690000D03*
X151500000Y-52690000D03*
X150250000Y-52690000D03*
X149000000Y-52690000D03*
X156500000Y-53940000D03*
X155250000Y-53940000D03*
X154000000Y-53940000D03*
X152750000Y-53940000D03*
X151500000Y-53940000D03*
X150250000Y-53940000D03*
X149000000Y-53940000D03*
X150250000Y-55190000D03*
X151500000Y-55190000D03*
X152750000Y-55190000D03*
X154000000Y-55190000D03*
X155250000Y-55190000D03*
X156500000Y-55190000D03*
X149000000Y-55190000D03*
X180100000Y-56750000D03*
X178850000Y-56750000D03*
X177600000Y-56750000D03*
X178850000Y-58000000D03*
X177600000Y-58000000D03*
X178850000Y-59250000D03*
X177600000Y-59250000D03*
X178850000Y-60500000D03*
X177600000Y-60500000D03*
X181350000Y-56750000D03*
X182600000Y-56750000D03*
X180100000Y-58000000D03*
X181350000Y-58000000D03*
X182600000Y-58000000D03*
X180100000Y-59250000D03*
X181350000Y-59250000D03*
X182600000Y-59250000D03*
X180100000Y-60500000D03*
X181350000Y-60500000D03*
X182600000Y-60500000D03*
X180297500Y-71837500D03*
X157100000Y-86930000D03*
X157100000Y-88180000D03*
X158350000Y-88180000D03*
X159600000Y-88180000D03*
X160850000Y-88180000D03*
X162100000Y-88180000D03*
X163350000Y-88180000D03*
X164600000Y-88180000D03*
X165850000Y-88180000D03*
X157100000Y-89430000D03*
X158350000Y-89430000D03*
X159600000Y-89430000D03*
X160850000Y-89430000D03*
X162100000Y-89430000D03*
X163350000Y-89430000D03*
X164600000Y-89430000D03*
X165850000Y-89430000D03*
X157100000Y-90680000D03*
X158350000Y-90680000D03*
X159600000Y-90680000D03*
X160850000Y-90680000D03*
X162100000Y-90680000D03*
X163350000Y-90680000D03*
X164600000Y-90680000D03*
X165850000Y-90680000D03*
X157100000Y-91930000D03*
X158350000Y-91930000D03*
X159600000Y-91930000D03*
X160850000Y-91930000D03*
X162100000Y-91930000D03*
X163350000Y-91930000D03*
X164600000Y-91930000D03*
X165850000Y-91930000D03*
X157100000Y-93180000D03*
X158350000Y-86930000D03*
X159600000Y-86930000D03*
X160850000Y-86930000D03*
X162100000Y-86930000D03*
X163350000Y-86930000D03*
X164600000Y-86930000D03*
X165850000Y-86930000D03*
X157100000Y-85680000D03*
X158350000Y-85680000D03*
X159600000Y-85680000D03*
X160850000Y-85680000D03*
X162100000Y-85680000D03*
X163350000Y-85680000D03*
X164600000Y-85680000D03*
X165850000Y-85680000D03*
X158350000Y-93180000D03*
X159600000Y-93180000D03*
X160850000Y-93180000D03*
X162100000Y-93180000D03*
X163350000Y-93180000D03*
X164600000Y-93180000D03*
X165850000Y-93180000D03*
X157100000Y-94430000D03*
X158350000Y-94430000D03*
X159600000Y-94430000D03*
X160850000Y-94430000D03*
X162100000Y-94430000D03*
X163350000Y-94430000D03*
X164600000Y-94430000D03*
X165850000Y-94430000D03*
X157100000Y-95680000D03*
X158350000Y-95680000D03*
X159600000Y-95680000D03*
X160850000Y-95680000D03*
X162100000Y-95680000D03*
X163350000Y-95680000D03*
X164600000Y-95680000D03*
X167100000Y-95680000D03*
X165850000Y-95680000D03*
X167100000Y-94430000D03*
X167100000Y-93180000D03*
X167100000Y-91930000D03*
X167100000Y-90680000D03*
X167100000Y-89430000D03*
X167100000Y-88180000D03*
X167100000Y-86930000D03*
X168558617Y-83930008D03*
X167088388Y-85691612D03*
X196250000Y-52500000D03*
X197500000Y-52500000D03*
X195000000Y-53750000D03*
X196250000Y-53750000D03*
X197500000Y-53750000D03*
X195000000Y-55000000D03*
X196250000Y-55000000D03*
X197500000Y-55000000D03*
X195000000Y-56250000D03*
X196250000Y-56250000D03*
X197500000Y-56250000D03*
X195000000Y-57500000D03*
X196250000Y-57500000D03*
X197500000Y-57500000D03*
X195000000Y-58750000D03*
X196250000Y-58750000D03*
X197500000Y-58750000D03*
X195000000Y-60000000D03*
X196250000Y-60000000D03*
X197500000Y-60000000D03*
X195000000Y-61250000D03*
X196250000Y-61250000D03*
X197500000Y-61250000D03*
X195000000Y-62500000D03*
X196250000Y-62500000D03*
X197500000Y-62500000D03*
X195000000Y-63750000D03*
X196250000Y-63750000D03*
X197500000Y-63750000D03*
X195000000Y-65000000D03*
X196250000Y-65000000D03*
X197500000Y-65000000D03*
X195000000Y-66250000D03*
X196250000Y-66250000D03*
X197500000Y-66250000D03*
X195000000Y-67500000D03*
X196250000Y-67500000D03*
X197500000Y-67500000D03*
X195000000Y-68750000D03*
X196250000Y-68750000D03*
X197500000Y-68750000D03*
X195000000Y-70000000D03*
X196250000Y-70000000D03*
X197500000Y-70000000D03*
X195000000Y-71250000D03*
X196250000Y-71250000D03*
X197500000Y-71250000D03*
X195000000Y-72500000D03*
X196250000Y-72500000D03*
X197500000Y-72500000D03*
X195000000Y-73750000D03*
X196250000Y-73750000D03*
X197500000Y-73750000D03*
X195000000Y-75000000D03*
X196250000Y-75000000D03*
X197500000Y-75000000D03*
X195000000Y-76250000D03*
X196250000Y-76250000D03*
X197500000Y-76250000D03*
X195000000Y-77500000D03*
X196250000Y-77500000D03*
X197500000Y-77500000D03*
X195000000Y-78750000D03*
X196250000Y-78750000D03*
X197500000Y-78750000D03*
X195000000Y-80000000D03*
X196250000Y-80000000D03*
X197500000Y-80000000D03*
X195000000Y-81250000D03*
X196250000Y-81250000D03*
X197500000Y-81250000D03*
X195000000Y-82500000D03*
X196250000Y-82500000D03*
X197500000Y-82500000D03*
X195000000Y-83750000D03*
X196250000Y-83750000D03*
X197500000Y-83750000D03*
X195000000Y-85000000D03*
X196250000Y-85000000D03*
X197500000Y-85000000D03*
X195000000Y-86250000D03*
X196250000Y-86250000D03*
X197500000Y-86250000D03*
X195000000Y-87500000D03*
X196250000Y-87500000D03*
X197500000Y-87500000D03*
X195000000Y-52500000D03*
D13*
X169750000Y-66850000D03*
X170500000Y-70830002D03*
D12*
X167060000Y-56840000D03*
X160250000Y-53940000D03*
X178490000Y-64756610D03*
X175795024Y-62770000D03*
D13*
X169500000Y-70821510D03*
X156000000Y-59323574D03*
X169500000Y-71659723D03*
X156000000Y-60161787D03*
X169500000Y-72508213D03*
X156000000Y-61000000D03*
X155999929Y-62197361D03*
X164650001Y-66500000D03*
X155977585Y-63035275D03*
X163750020Y-66500000D03*
X155980163Y-63873483D03*
X162840000Y-66500000D03*
X152200000Y-69600000D03*
X165250000Y-67849998D03*
X152200000Y-70500000D03*
X165250000Y-68750002D03*
X152200000Y-71400000D03*
X165250000Y-69649998D03*
X165000002Y-72450000D03*
X152200000Y-72900000D03*
X165000000Y-73350000D03*
X152200000Y-73800000D03*
X165000000Y-74250000D03*
X152200000Y-74700000D03*
X165500000Y-62200000D03*
X147000000Y-67000000D03*
X147000000Y-66000000D03*
X166350000Y-62190000D03*
X147000000Y-65000000D03*
X167200000Y-62190000D03*
X168250000Y-65500000D03*
X147000000Y-64000000D03*
X169750000Y-65500000D03*
X147000000Y-63000000D03*
X176710000Y-50240000D03*
X180230000Y-51530000D03*
X161660881Y-77090881D03*
X187240000Y-58830000D03*
X162100000Y-72300000D03*
X189770000Y-53500000D03*
X162754282Y-81364282D03*
X170260000Y-82910000D03*
X165000000Y-78000000D03*
X173730006Y-82910000D03*
X159496000Y-78740000D03*
X168010000Y-80740000D03*
X160512000Y-78740000D03*
X169110000Y-80680000D03*
X166000000Y-78000000D03*
X175350000Y-81850000D03*
X158480000Y-78740000D03*
X166760000Y-80750000D03*
X172039121Y-81891335D03*
X164000000Y-78000000D03*
X162100000Y-71400000D03*
X175000000Y-49000000D03*
X162100000Y-70500000D03*
X174160000Y-50000000D03*
X160740006Y-44070006D03*
X160740000Y-45700000D03*
X172450000Y-64890000D03*
D14*
X158200000Y-71400000D02*
X153800002Y-71400000D01*
X185000000Y-82990000D02*
X178720000Y-76710000D01*
X178720000Y-76710000D02*
X171390000Y-76710000D01*
X167930000Y-83930008D02*
X168558617Y-83930008D01*
X162580008Y-83930008D02*
X167930000Y-83930008D01*
X162580000Y-83930000D02*
X162580008Y-83930008D01*
D15*
X170092899Y-67192899D02*
X169750000Y-66850000D01*
X170500000Y-67600000D02*
X170092899Y-67192899D01*
X170500000Y-70830002D02*
X170500000Y-67600000D01*
D14*
X164160000Y-53940000D02*
X167060000Y-56840000D01*
X160250000Y-53940000D02*
X164160000Y-53940000D01*
X176503390Y-62770000D02*
X175795024Y-62770000D01*
X178490000Y-64756610D02*
X176503390Y-62770000D01*
D15*
X156000000Y-59323574D02*
X160613574Y-59323574D01*
X160613574Y-59323574D02*
X169500000Y-68210000D01*
X169500000Y-68210000D02*
X169500000Y-70336577D01*
X169500000Y-70336577D02*
X169500000Y-70821510D01*
X160491787Y-60161787D02*
X168664213Y-68334213D01*
X168664213Y-68334213D02*
X168664213Y-70823936D01*
X168664213Y-70823936D02*
X169157101Y-71316824D01*
X169157101Y-71316824D02*
X169500000Y-71659723D01*
X156000000Y-60161787D02*
X160491787Y-60161787D01*
X156000000Y-61000000D02*
X160340000Y-61000000D01*
X160340000Y-61000000D02*
X167950000Y-68610000D01*
X167950000Y-68610000D02*
X167950000Y-70958213D01*
X167950000Y-70958213D02*
X169157101Y-72165314D01*
X169157101Y-72165314D02*
X169500000Y-72508213D01*
X160347362Y-62197361D02*
X156484862Y-62197361D01*
X156484862Y-62197361D02*
X155999929Y-62197361D01*
X164650001Y-66500000D02*
X160347362Y-62197361D01*
X163750020Y-66500000D02*
X160285295Y-63035275D01*
X160285295Y-63035275D02*
X156462518Y-63035275D01*
X156462518Y-63035275D02*
X155977585Y-63035275D01*
X155980163Y-63873483D02*
X160213483Y-63873483D01*
X160213483Y-63873483D02*
X160556382Y-64216382D01*
X162840000Y-66500000D02*
X160556382Y-64216382D01*
X152542899Y-69257101D02*
X152200000Y-69600000D01*
X153950002Y-67849998D02*
X152542899Y-69257101D01*
X165250000Y-67849998D02*
X153950002Y-67849998D01*
X152542899Y-70157101D02*
X152200000Y-70500000D01*
X153949998Y-68750002D02*
X152542899Y-70157101D01*
X165250000Y-68750002D02*
X153949998Y-68750002D01*
X152542899Y-71057101D02*
X152200000Y-71400000D01*
X153950002Y-69649998D02*
X152542899Y-71057101D01*
X165250000Y-69649998D02*
X153950002Y-69649998D01*
X164657103Y-72792899D02*
X165000002Y-72450000D01*
X164550002Y-72900000D02*
X164657103Y-72792899D01*
X152200000Y-72900000D02*
X164550002Y-72900000D01*
X164657101Y-73692899D02*
X165000000Y-73350000D01*
X164550000Y-73800000D02*
X164657101Y-73692899D01*
X152200000Y-73800000D02*
X164550000Y-73800000D01*
X164657101Y-74592899D02*
X165000000Y-74250000D01*
X164550000Y-74700000D02*
X164657101Y-74592899D01*
X152200000Y-74700000D02*
X164550000Y-74700000D01*
X165500000Y-62200000D02*
X161870000Y-58570000D01*
X161870000Y-58570000D02*
X155430000Y-58570000D01*
X155430000Y-58570000D02*
X147000000Y-67000000D01*
X166350000Y-62190000D02*
X162140000Y-57980000D01*
X162140000Y-57980000D02*
X155020000Y-57980000D01*
X155020000Y-57980000D02*
X147342899Y-65657101D01*
X147342899Y-65657101D02*
X147000000Y-66000000D01*
X167200000Y-62190000D02*
X162440000Y-57430000D01*
X162440000Y-57430000D02*
X154570000Y-57430000D01*
X154570000Y-57430000D02*
X147342899Y-64657101D01*
X147342899Y-64657101D02*
X147000000Y-65000000D01*
X147000000Y-64000000D02*
X154160000Y-56840000D01*
X154160000Y-56840000D02*
X162700000Y-56840000D01*
X162700000Y-56840000D02*
X168250000Y-62390000D01*
X168250000Y-62390000D02*
X168250000Y-65015067D01*
X168250000Y-65015067D02*
X168250000Y-65500000D01*
X169750000Y-65500000D02*
X169750000Y-63040000D01*
X169750000Y-63040000D02*
X163070000Y-56360000D01*
X163070000Y-56360000D02*
X153640000Y-56360000D01*
X153640000Y-56360000D02*
X147342899Y-62657101D01*
X147342899Y-62657101D02*
X147000000Y-63000000D01*
X176710000Y-50240000D02*
X177660000Y-51190000D01*
X177660000Y-51190000D02*
X179890000Y-51190000D01*
X179890000Y-51190000D02*
X180230000Y-51530000D01*
X161660881Y-77090881D02*
X168979119Y-77090881D01*
X186897101Y-59172899D02*
X187240000Y-58830000D01*
X168979119Y-77090881D02*
X186897101Y-59172899D01*
X162100000Y-72300000D02*
X162580000Y-71820000D01*
X170564933Y-74290000D02*
X189770000Y-55084933D01*
X189770000Y-55084933D02*
X189770000Y-53984933D01*
X189770000Y-53984933D02*
X189770000Y-53500000D01*
X168230000Y-74290000D02*
X170564933Y-74290000D01*
X165760000Y-71820000D02*
X168230000Y-74290000D01*
X162580000Y-71820000D02*
X165760000Y-71820000D01*
X163097181Y-81707181D02*
X162754282Y-81364282D01*
X164300000Y-82910000D02*
X163097181Y-81707181D01*
X170260000Y-82910000D02*
X164300000Y-82910000D01*
X173730006Y-81850006D02*
X173730006Y-82910000D01*
X170480000Y-78600000D02*
X173730006Y-81850006D01*
X165000000Y-78000000D02*
X165600000Y-78600000D01*
X165600000Y-78600000D02*
X170480000Y-78600000D01*
X160924499Y-80168499D02*
X159838899Y-79082899D01*
X167438499Y-80168499D02*
X160924499Y-80168499D01*
X168010000Y-80740000D02*
X167438499Y-80168499D01*
X159838899Y-79082899D02*
X159496000Y-78740000D01*
X161522000Y-79750000D02*
X160854899Y-79082899D01*
X169110000Y-80680000D02*
X168180000Y-79750000D01*
X168180000Y-79750000D02*
X161522000Y-79750000D01*
X160854899Y-79082899D02*
X160512000Y-78740000D01*
X175350000Y-81850000D02*
X171500000Y-78000000D01*
X166000000Y-78000000D02*
X171500000Y-78000000D01*
X158822899Y-79082899D02*
X158480000Y-78740000D01*
X166760000Y-80750000D02*
X160490000Y-80750000D01*
X160490000Y-80750000D02*
X158822899Y-79082899D01*
X172039121Y-81889121D02*
X172039121Y-81891335D01*
X169320000Y-79170000D02*
X172039121Y-81889121D01*
X164000000Y-78000000D02*
X165170000Y-79170000D01*
X165170000Y-79170000D02*
X169320000Y-79170000D01*
X175000000Y-69420000D02*
X175000000Y-49484933D01*
X175000000Y-49484933D02*
X175000000Y-49000000D01*
X170640000Y-73780000D02*
X175000000Y-69420000D01*
X168540000Y-73780000D02*
X170640000Y-73780000D01*
X166160000Y-71400000D02*
X168540000Y-73780000D01*
X162100000Y-71400000D02*
X166160000Y-71400000D01*
X168880000Y-73250000D02*
X170600000Y-73250000D01*
X162100000Y-70500000D02*
X166130000Y-70500000D01*
X166130000Y-70500000D02*
X168880000Y-73250000D01*
X170600000Y-73250000D02*
X174160000Y-69690000D01*
X174160000Y-50484933D02*
X174160000Y-50000000D01*
X174160000Y-69690000D02*
X174160000Y-50484933D01*
X160740006Y-44070006D02*
X160740006Y-45699994D01*
X160740006Y-45699994D02*
X160740000Y-45700000D01*
X172450000Y-64405067D02*
X172450000Y-64890000D01*
X172450000Y-57410000D02*
X172450000Y-64405067D01*
X160740000Y-45700000D02*
X172450000Y-57410000D01*
D14*
G36*
X199055665Y-40718863D02*
G01*
X199109214Y-40735030D01*
X199158597Y-40761288D01*
X199201945Y-40796641D01*
X199237600Y-40839740D01*
X199264201Y-40888937D01*
X199280742Y-40942375D01*
X199290000Y-41030455D01*
X199290001Y-98965269D01*
X199281138Y-99055664D01*
X199264970Y-99109214D01*
X199238712Y-99158597D01*
X199203357Y-99201947D01*
X199160261Y-99237599D01*
X199111063Y-99264201D01*
X199057625Y-99280742D01*
X198969545Y-99290000D01*
X121034721Y-99290000D01*
X120944336Y-99281138D01*
X120890786Y-99264970D01*
X120841403Y-99238712D01*
X120798053Y-99203357D01*
X120762401Y-99160261D01*
X120735799Y-99111063D01*
X120719258Y-99057625D01*
X120710000Y-98969545D01*
X120710000Y-96789721D01*
X120865000Y-96789721D01*
X120865000Y-97210279D01*
X120947047Y-97622756D01*
X121107988Y-98011302D01*
X121341637Y-98360983D01*
X121639017Y-98658363D01*
X121988698Y-98892012D01*
X122377244Y-99052953D01*
X122789721Y-99135000D01*
X123210279Y-99135000D01*
X123622756Y-99052953D01*
X124011302Y-98892012D01*
X124360983Y-98658363D01*
X124658363Y-98360983D01*
X124892012Y-98011302D01*
X125052953Y-97622756D01*
X125135000Y-97210279D01*
X125135000Y-96789721D01*
X125052953Y-96377244D01*
X124892012Y-95988698D01*
X124658363Y-95639017D01*
X124607558Y-95588212D01*
X172085000Y-95588212D01*
X172085000Y-95811788D01*
X172128617Y-96031067D01*
X172214176Y-96237624D01*
X172338388Y-96423520D01*
X172496480Y-96581612D01*
X172682376Y-96705824D01*
X172888933Y-96791383D01*
X173108212Y-96835000D01*
X173331788Y-96835000D01*
X173551067Y-96791383D01*
X173757624Y-96705824D01*
X173943520Y-96581612D01*
X174101612Y-96423520D01*
X174225824Y-96237624D01*
X174311383Y-96031067D01*
X174355000Y-95811788D01*
X174355000Y-95588212D01*
X180065000Y-95588212D01*
X180065000Y-95811788D01*
X180108617Y-96031067D01*
X180194176Y-96237624D01*
X180318388Y-96423520D01*
X180476480Y-96581612D01*
X180662376Y-96705824D01*
X180868933Y-96791383D01*
X181088212Y-96835000D01*
X181311788Y-96835000D01*
X181531067Y-96791383D01*
X181535079Y-96789721D01*
X194865000Y-96789721D01*
X194865000Y-97210279D01*
X194947047Y-97622756D01*
X195107988Y-98011302D01*
X195341637Y-98360983D01*
X195639017Y-98658363D01*
X195988698Y-98892012D01*
X196377244Y-99052953D01*
X196789721Y-99135000D01*
X197210279Y-99135000D01*
X197622756Y-99052953D01*
X198011302Y-98892012D01*
X198360983Y-98658363D01*
X198658363Y-98360983D01*
X198892012Y-98011302D01*
X199052953Y-97622756D01*
X199135000Y-97210279D01*
X199135000Y-96789721D01*
X199052953Y-96377244D01*
X198892012Y-95988698D01*
X198658363Y-95639017D01*
X198360983Y-95341637D01*
X198011302Y-95107988D01*
X197622756Y-94947047D01*
X197210279Y-94865000D01*
X196789721Y-94865000D01*
X196377244Y-94947047D01*
X195988698Y-95107988D01*
X195639017Y-95341637D01*
X195341637Y-95639017D01*
X195107988Y-95988698D01*
X194947047Y-96377244D01*
X194865000Y-96789721D01*
X181535079Y-96789721D01*
X181737624Y-96705824D01*
X181923520Y-96581612D01*
X182081612Y-96423520D01*
X182205824Y-96237624D01*
X182291383Y-96031067D01*
X182335000Y-95811788D01*
X182335000Y-95588212D01*
X182291383Y-95368933D01*
X182205824Y-95162376D01*
X182081612Y-94976480D01*
X181923520Y-94818388D01*
X181737624Y-94694176D01*
X181531067Y-94608617D01*
X181311788Y-94565000D01*
X181088212Y-94565000D01*
X180868933Y-94608617D01*
X180662376Y-94694176D01*
X180476480Y-94818388D01*
X180318388Y-94976480D01*
X180194176Y-95162376D01*
X180108617Y-95368933D01*
X180065000Y-95588212D01*
X174355000Y-95588212D01*
X174311383Y-95368933D01*
X174225824Y-95162376D01*
X174101612Y-94976480D01*
X173943520Y-94818388D01*
X173757624Y-94694176D01*
X173551067Y-94608617D01*
X173331788Y-94565000D01*
X173108212Y-94565000D01*
X172888933Y-94608617D01*
X172682376Y-94694176D01*
X172496480Y-94818388D01*
X172338388Y-94976480D01*
X172214176Y-95162376D01*
X172128617Y-95368933D01*
X172085000Y-95588212D01*
X124607558Y-95588212D01*
X124360983Y-95341637D01*
X124011302Y-95107988D01*
X123622756Y-94947047D01*
X123210279Y-94865000D01*
X122789721Y-94865000D01*
X122377244Y-94947047D01*
X121988698Y-95107988D01*
X121639017Y-95341637D01*
X121341637Y-95639017D01*
X121107988Y-95988698D01*
X120947047Y-96377244D01*
X120865000Y-96789721D01*
X120710000Y-96789721D01*
X120710000Y-87034722D01*
X120718863Y-86944335D01*
X120735030Y-86890786D01*
X120761288Y-86841403D01*
X120796641Y-86798055D01*
X120839740Y-86762400D01*
X120888937Y-86735799D01*
X120942375Y-86719258D01*
X121030455Y-86710000D01*
X139034877Y-86710000D01*
X139065222Y-86707011D01*
X139071332Y-86707054D01*
X139081198Y-86706086D01*
X139275295Y-86685685D01*
X139338310Y-86672750D01*
X139401540Y-86660688D01*
X139411030Y-86657823D01*
X139597468Y-86600111D01*
X139656797Y-86575171D01*
X139716455Y-86551068D01*
X139725208Y-86546414D01*
X139896885Y-86453589D01*
X139950198Y-86417629D01*
X140004083Y-86382367D01*
X140011765Y-86376102D01*
X140162143Y-86251698D01*
X140207480Y-86206043D01*
X140253463Y-86161013D01*
X140259782Y-86153375D01*
X140383132Y-86002133D01*
X140418757Y-85948513D01*
X140455099Y-85895436D01*
X140459814Y-85886716D01*
X140551439Y-85714394D01*
X140575951Y-85654924D01*
X140601312Y-85595752D01*
X140604243Y-85586282D01*
X140660652Y-85399446D01*
X140673152Y-85336316D01*
X140686530Y-85273377D01*
X140687566Y-85263519D01*
X140706611Y-85069285D01*
X140710000Y-85034877D01*
X140710000Y-62903685D01*
X146022100Y-62903685D01*
X146022100Y-63096315D01*
X146059680Y-63285243D01*
X146133396Y-63463210D01*
X146157978Y-63500000D01*
X146133396Y-63536790D01*
X146059680Y-63714757D01*
X146022100Y-63903685D01*
X146022100Y-64096315D01*
X146059680Y-64285243D01*
X146133396Y-64463210D01*
X146157978Y-64500000D01*
X146133396Y-64536790D01*
X146059680Y-64714757D01*
X146022100Y-64903685D01*
X146022100Y-65096315D01*
X146059680Y-65285243D01*
X146133396Y-65463210D01*
X146157978Y-65500000D01*
X146133396Y-65536790D01*
X146059680Y-65714757D01*
X146022100Y-65903685D01*
X146022100Y-66096315D01*
X146059680Y-66285243D01*
X146133396Y-66463210D01*
X146157978Y-66500000D01*
X146133396Y-66536790D01*
X146059680Y-66714757D01*
X146022100Y-66903685D01*
X146022100Y-67096315D01*
X146059680Y-67285243D01*
X146133396Y-67463210D01*
X146240415Y-67623375D01*
X146376625Y-67759585D01*
X146536790Y-67866604D01*
X146714757Y-67940320D01*
X146903685Y-67977900D01*
X147096315Y-67977900D01*
X147285243Y-67940320D01*
X147463210Y-67866604D01*
X147623375Y-67759585D01*
X147759585Y-67623375D01*
X147866604Y-67463210D01*
X147940320Y-67285243D01*
X147977900Y-67096315D01*
X147977900Y-67027887D01*
X155042407Y-59963382D01*
X155022100Y-60065472D01*
X155022100Y-60258102D01*
X155059680Y-60447030D01*
X155115128Y-60580894D01*
X155059680Y-60714757D01*
X155022100Y-60903685D01*
X155022100Y-61096315D01*
X155059680Y-61285243D01*
X155133396Y-61463210D01*
X155223879Y-61598627D01*
X155133325Y-61734151D01*
X155059609Y-61912118D01*
X155022029Y-62101046D01*
X155022029Y-62293676D01*
X155059609Y-62482604D01*
X155103823Y-62589346D01*
X155037265Y-62750032D01*
X154999685Y-62938960D01*
X154999685Y-63131590D01*
X155037265Y-63320518D01*
X155094001Y-63457491D01*
X155039843Y-63588240D01*
X155002263Y-63777168D01*
X155002263Y-63969798D01*
X155039843Y-64158726D01*
X155113559Y-64336693D01*
X155220578Y-64496858D01*
X155356788Y-64633068D01*
X155516953Y-64740087D01*
X155694920Y-64813803D01*
X155883848Y-64851383D01*
X156076478Y-64851383D01*
X156265406Y-64813803D01*
X156443373Y-64740087D01*
X156603538Y-64633068D01*
X156651923Y-64584683D01*
X159918895Y-64584683D01*
X160078191Y-64743979D01*
X160078196Y-64743983D01*
X161862100Y-66527889D01*
X161862100Y-66596315D01*
X161899680Y-66785243D01*
X161973396Y-66963210D01*
X162080415Y-67123375D01*
X162095838Y-67138798D01*
X153984927Y-67138798D01*
X153950001Y-67135358D01*
X153915075Y-67138798D01*
X153915066Y-67138798D01*
X153810582Y-67149089D01*
X153676521Y-67189756D01*
X153552969Y-67255796D01*
X153444675Y-67344671D01*
X153422405Y-67371807D01*
X152172113Y-68622100D01*
X152103685Y-68622100D01*
X151914757Y-68659680D01*
X151736790Y-68733396D01*
X151576625Y-68840415D01*
X151440415Y-68976625D01*
X151333396Y-69136790D01*
X151259680Y-69314757D01*
X151222100Y-69503685D01*
X151222100Y-69696315D01*
X151259680Y-69885243D01*
X151327924Y-70050000D01*
X151259680Y-70214757D01*
X151222100Y-70403685D01*
X151222100Y-70596315D01*
X151259680Y-70785243D01*
X151327924Y-70950000D01*
X151259680Y-71114757D01*
X151222100Y-71303685D01*
X151222100Y-71496315D01*
X151259680Y-71685243D01*
X151333396Y-71863210D01*
X151440415Y-72023375D01*
X151567040Y-72150000D01*
X151440415Y-72276625D01*
X151333396Y-72436790D01*
X151259680Y-72614757D01*
X151222100Y-72803685D01*
X151222100Y-72996315D01*
X151259680Y-73185243D01*
X151327924Y-73350000D01*
X151259680Y-73514757D01*
X151222100Y-73703685D01*
X151222100Y-73896315D01*
X151259680Y-74085243D01*
X151327924Y-74250000D01*
X151259680Y-74414757D01*
X151222100Y-74603685D01*
X151222100Y-74796315D01*
X151259680Y-74985243D01*
X151333396Y-75163210D01*
X151440415Y-75323375D01*
X151576625Y-75459585D01*
X151736790Y-75566604D01*
X151914757Y-75640320D01*
X152103685Y-75677900D01*
X152296315Y-75677900D01*
X152485243Y-75640320D01*
X152663210Y-75566604D01*
X152823375Y-75459585D01*
X152871760Y-75411200D01*
X164515074Y-75411200D01*
X164550000Y-75414640D01*
X164584926Y-75411200D01*
X164584936Y-75411200D01*
X164689420Y-75400909D01*
X164823481Y-75360242D01*
X164947033Y-75294202D01*
X165027822Y-75227900D01*
X165096315Y-75227900D01*
X165285243Y-75190320D01*
X165463210Y-75116604D01*
X165623375Y-75009585D01*
X165759585Y-74873375D01*
X165866604Y-74713210D01*
X165940320Y-74535243D01*
X165977900Y-74346315D01*
X165977900Y-74153685D01*
X165940320Y-73964757D01*
X165872076Y-73800000D01*
X165940320Y-73635243D01*
X165977900Y-73446315D01*
X165977900Y-73253685D01*
X165940320Y-73064757D01*
X165898849Y-72964636D01*
X167702407Y-74768196D01*
X167724673Y-74795327D01*
X167751804Y-74817593D01*
X167751808Y-74817597D01*
X167778400Y-74839420D01*
X167832967Y-74884202D01*
X167956519Y-74950242D01*
X168090580Y-74990909D01*
X168195064Y-75001200D01*
X168195081Y-75001200D01*
X168229999Y-75004639D01*
X168264917Y-75001200D01*
X170063013Y-75001200D01*
X168684532Y-76379681D01*
X162332641Y-76379681D01*
X162284256Y-76331296D01*
X162124091Y-76224277D01*
X161946124Y-76150561D01*
X161757196Y-76112981D01*
X161564566Y-76112981D01*
X161375638Y-76150561D01*
X161197671Y-76224277D01*
X161037506Y-76331296D01*
X160901296Y-76467506D01*
X160794277Y-76627671D01*
X160720561Y-76805638D01*
X160682981Y-76994566D01*
X160682981Y-77187196D01*
X160720561Y-77376124D01*
X160794277Y-77554091D01*
X160901296Y-77714256D01*
X161037506Y-77850466D01*
X161197671Y-77957485D01*
X161375638Y-78031201D01*
X161564566Y-78068781D01*
X161757196Y-78068781D01*
X161946124Y-78031201D01*
X162124091Y-77957485D01*
X162284256Y-77850466D01*
X162332641Y-77802081D01*
X163042310Y-77802081D01*
X163022100Y-77903685D01*
X163022100Y-78096315D01*
X163059680Y-78285243D01*
X163133396Y-78463210D01*
X163240415Y-78623375D01*
X163376625Y-78759585D01*
X163536790Y-78866604D01*
X163714757Y-78940320D01*
X163903685Y-78977900D01*
X163972113Y-78977900D01*
X164033013Y-79038800D01*
X161816588Y-79038800D01*
X161489900Y-78712113D01*
X161489900Y-78643685D01*
X161452320Y-78454757D01*
X161378604Y-78276790D01*
X161271585Y-78116625D01*
X161135375Y-77980415D01*
X160975210Y-77873396D01*
X160797243Y-77799680D01*
X160608315Y-77762100D01*
X160415685Y-77762100D01*
X160226757Y-77799680D01*
X160048790Y-77873396D01*
X160004000Y-77903324D01*
X159959210Y-77873396D01*
X159781243Y-77799680D01*
X159592315Y-77762100D01*
X159399685Y-77762100D01*
X159210757Y-77799680D01*
X159032790Y-77873396D01*
X158988000Y-77903324D01*
X158943210Y-77873396D01*
X158765243Y-77799680D01*
X158576315Y-77762100D01*
X158383685Y-77762100D01*
X158194757Y-77799680D01*
X158016790Y-77873396D01*
X157856625Y-77980415D01*
X157720415Y-78116625D01*
X157613396Y-78276790D01*
X157539680Y-78454757D01*
X157502100Y-78643685D01*
X157502100Y-78836315D01*
X157539680Y-79025243D01*
X157613396Y-79203210D01*
X157720415Y-79363375D01*
X157856625Y-79499585D01*
X158016790Y-79606604D01*
X158194757Y-79680320D01*
X158383685Y-79717900D01*
X158452113Y-79717900D01*
X159962403Y-81228191D01*
X159984673Y-81255327D01*
X160092967Y-81344202D01*
X160216519Y-81410242D01*
X160350580Y-81450909D01*
X160455064Y-81461200D01*
X160455071Y-81461200D01*
X160490000Y-81464640D01*
X160524928Y-81461200D01*
X161776502Y-81461200D01*
X161813962Y-81649525D01*
X161887678Y-81827492D01*
X161994697Y-81987657D01*
X162130907Y-82123867D01*
X162291072Y-82230886D01*
X162469039Y-82304602D01*
X162657967Y-82342182D01*
X162726395Y-82342182D01*
X163772403Y-83388191D01*
X163794673Y-83415327D01*
X163902967Y-83504202D01*
X164026519Y-83570242D01*
X164160580Y-83610909D01*
X164265064Y-83621200D01*
X164265071Y-83621200D01*
X164300000Y-83624640D01*
X164334928Y-83621200D01*
X169588240Y-83621200D01*
X169636625Y-83669585D01*
X169796790Y-83776604D01*
X169974757Y-83850320D01*
X170163685Y-83887900D01*
X170356315Y-83887900D01*
X170545243Y-83850320D01*
X170723210Y-83776604D01*
X170883375Y-83669585D01*
X171019585Y-83533375D01*
X171126604Y-83373210D01*
X171200320Y-83195243D01*
X171237900Y-83006315D01*
X171237900Y-82813685D01*
X171200320Y-82624757D01*
X171126604Y-82446790D01*
X171019585Y-82286625D01*
X170883375Y-82150415D01*
X170723210Y-82043396D01*
X170545243Y-81969680D01*
X170356315Y-81932100D01*
X170163685Y-81932100D01*
X169974757Y-81969680D01*
X169796790Y-82043396D01*
X169636625Y-82150415D01*
X169588240Y-82198800D01*
X164594588Y-82198800D01*
X163856987Y-81461200D01*
X166088240Y-81461200D01*
X166136625Y-81509585D01*
X166296790Y-81616604D01*
X166474757Y-81690320D01*
X166663685Y-81727900D01*
X166856315Y-81727900D01*
X167045243Y-81690320D01*
X167223210Y-81616604D01*
X167383375Y-81509585D01*
X167390671Y-81502289D01*
X167546790Y-81606604D01*
X167724757Y-81680320D01*
X167913685Y-81717900D01*
X168106315Y-81717900D01*
X168295243Y-81680320D01*
X168473210Y-81606604D01*
X168604898Y-81518613D01*
X168646790Y-81546604D01*
X168824757Y-81620320D01*
X169013685Y-81657900D01*
X169206315Y-81657900D01*
X169395243Y-81620320D01*
X169573210Y-81546604D01*
X169733375Y-81439585D01*
X169869585Y-81303375D01*
X169976604Y-81143210D01*
X170050320Y-80965243D01*
X170060131Y-80915919D01*
X171061221Y-81917009D01*
X171061221Y-81987650D01*
X171098801Y-82176578D01*
X171172517Y-82354545D01*
X171279536Y-82514710D01*
X171415746Y-82650920D01*
X171575911Y-82757939D01*
X171753878Y-82831655D01*
X171942806Y-82869235D01*
X172135436Y-82869235D01*
X172324364Y-82831655D01*
X172502331Y-82757939D01*
X172662496Y-82650920D01*
X172798706Y-82514710D01*
X172905725Y-82354545D01*
X172979441Y-82176578D01*
X172991278Y-82117067D01*
X173018806Y-82144595D01*
X173018806Y-82238240D01*
X172970421Y-82286625D01*
X172863402Y-82446790D01*
X172789686Y-82624757D01*
X172752106Y-82813685D01*
X172752106Y-83006315D01*
X172789686Y-83195243D01*
X172863402Y-83373210D01*
X172970421Y-83533375D01*
X173106631Y-83669585D01*
X173266796Y-83776604D01*
X173444763Y-83850320D01*
X173633691Y-83887900D01*
X173826321Y-83887900D01*
X174015249Y-83850320D01*
X174193216Y-83776604D01*
X174353381Y-83669585D01*
X174489591Y-83533375D01*
X174596610Y-83373210D01*
X174670326Y-83195243D01*
X174707906Y-83006315D01*
X174707906Y-82813685D01*
X174670326Y-82624757D01*
X174619789Y-82502749D01*
X174726625Y-82609585D01*
X174886790Y-82716604D01*
X175064757Y-82790320D01*
X175253685Y-82827900D01*
X175446315Y-82827900D01*
X175635243Y-82790320D01*
X175813210Y-82716604D01*
X175973375Y-82609585D01*
X176109585Y-82473375D01*
X176216604Y-82313210D01*
X176290320Y-82135243D01*
X176327900Y-81946315D01*
X176327900Y-81753685D01*
X176290320Y-81564757D01*
X176216604Y-81386790D01*
X176109585Y-81226625D01*
X175973375Y-81090415D01*
X175813210Y-80983396D01*
X175635243Y-80909680D01*
X175446315Y-80872100D01*
X175377889Y-80872100D01*
X172027602Y-77521815D01*
X172005327Y-77494673D01*
X171897033Y-77405798D01*
X171773481Y-77339758D01*
X171639420Y-77299091D01*
X171534936Y-77288800D01*
X171534926Y-77288800D01*
X171500000Y-77285360D01*
X171465074Y-77288800D01*
X169786987Y-77288800D01*
X187267888Y-59807900D01*
X187336315Y-59807900D01*
X187525243Y-59770320D01*
X187703210Y-59696604D01*
X187863375Y-59589585D01*
X187999585Y-59453375D01*
X188106604Y-59293210D01*
X188180320Y-59115243D01*
X188217900Y-58926315D01*
X188217900Y-58733685D01*
X188180320Y-58544757D01*
X188106604Y-58366790D01*
X187999585Y-58206625D01*
X187863375Y-58070415D01*
X187819574Y-58041148D01*
X190248201Y-55612521D01*
X190275326Y-55590260D01*
X190297588Y-55563134D01*
X190297597Y-55563125D01*
X190364202Y-55481966D01*
X190430241Y-55358415D01*
X190430242Y-55358414D01*
X190470909Y-55224353D01*
X190481200Y-55119869D01*
X190481200Y-55119860D01*
X190484640Y-55084934D01*
X190481200Y-55050008D01*
X190481200Y-54171760D01*
X190529585Y-54123375D01*
X190636604Y-53963210D01*
X190710320Y-53785243D01*
X190747900Y-53596315D01*
X190747900Y-53403685D01*
X190710320Y-53214757D01*
X190636604Y-53036790D01*
X190529585Y-52876625D01*
X190393375Y-52740415D01*
X190233210Y-52633396D01*
X190055243Y-52559680D01*
X189866315Y-52522100D01*
X189673685Y-52522100D01*
X189484757Y-52559680D01*
X189306790Y-52633396D01*
X189146625Y-52740415D01*
X189010415Y-52876625D01*
X188903396Y-53036790D01*
X188829680Y-53214757D01*
X188792100Y-53403685D01*
X188792100Y-53596315D01*
X188829680Y-53785243D01*
X188903396Y-53963210D01*
X189010415Y-54123375D01*
X189058801Y-54171761D01*
X189058800Y-54790344D01*
X179492692Y-64356453D01*
X179446640Y-64245275D01*
X179328502Y-64068469D01*
X179178141Y-63918108D01*
X179001335Y-63799970D01*
X178804878Y-63718595D01*
X178596321Y-63677110D01*
X178488131Y-63677110D01*
X177068674Y-62257654D01*
X177044812Y-62228578D01*
X176928782Y-62133355D01*
X176796405Y-62062598D01*
X176652768Y-62019026D01*
X176561726Y-62010059D01*
X176483165Y-61931498D01*
X176306359Y-61813360D01*
X176109902Y-61731985D01*
X175901345Y-61690500D01*
X175711200Y-61690500D01*
X175711200Y-50143685D01*
X175732100Y-50143685D01*
X175732100Y-50336315D01*
X175769680Y-50525243D01*
X175843396Y-50703210D01*
X175950415Y-50863375D01*
X176086625Y-50999585D01*
X176246790Y-51106604D01*
X176424757Y-51180320D01*
X176613685Y-51217900D01*
X176682112Y-51217900D01*
X177132403Y-51668190D01*
X177154673Y-51695327D01*
X177262967Y-51784202D01*
X177386519Y-51850242D01*
X177520580Y-51890909D01*
X177625064Y-51901200D01*
X177625071Y-51901200D01*
X177660000Y-51904640D01*
X177694928Y-51901200D01*
X179325284Y-51901200D01*
X179363396Y-51993210D01*
X179470415Y-52153375D01*
X179606625Y-52289585D01*
X179766790Y-52396604D01*
X179944757Y-52470320D01*
X180133685Y-52507900D01*
X180326315Y-52507900D01*
X180515243Y-52470320D01*
X180693210Y-52396604D01*
X180853375Y-52289585D01*
X180989585Y-52153375D01*
X181096604Y-51993210D01*
X181170320Y-51815243D01*
X181207900Y-51626315D01*
X181207900Y-51433685D01*
X181170320Y-51244757D01*
X181096604Y-51066790D01*
X180989585Y-50906625D01*
X180853375Y-50770415D01*
X180693210Y-50663396D01*
X180515243Y-50589680D01*
X180326315Y-50552100D01*
X180205280Y-50552100D01*
X180163481Y-50529758D01*
X180029420Y-50489091D01*
X179924936Y-50478800D01*
X179924926Y-50478800D01*
X179890000Y-50475360D01*
X179855074Y-50478800D01*
X177954588Y-50478800D01*
X177687900Y-50212112D01*
X177687900Y-50143685D01*
X177650320Y-49954757D01*
X177576604Y-49776790D01*
X177469585Y-49616625D01*
X177333375Y-49480415D01*
X177173210Y-49373396D01*
X176995243Y-49299680D01*
X176806315Y-49262100D01*
X176613685Y-49262100D01*
X176424757Y-49299680D01*
X176246790Y-49373396D01*
X176086625Y-49480415D01*
X175950415Y-49616625D01*
X175843396Y-49776790D01*
X175769680Y-49954757D01*
X175732100Y-50143685D01*
X175711200Y-50143685D01*
X175711200Y-49671760D01*
X175759585Y-49623375D01*
X175866604Y-49463210D01*
X175940320Y-49285243D01*
X175977900Y-49096315D01*
X175977900Y-48903685D01*
X175940320Y-48714757D01*
X175866604Y-48536790D01*
X175759585Y-48376625D01*
X175623375Y-48240415D01*
X175463210Y-48133396D01*
X175285243Y-48059680D01*
X175096315Y-48022100D01*
X174903685Y-48022100D01*
X174714757Y-48059680D01*
X174536790Y-48133396D01*
X174376625Y-48240415D01*
X174240415Y-48376625D01*
X174133396Y-48536790D01*
X174059680Y-48714757D01*
X174022100Y-48903685D01*
X174022100Y-49030372D01*
X173874757Y-49059680D01*
X173696790Y-49133396D01*
X173536625Y-49240415D01*
X173400415Y-49376625D01*
X173293396Y-49536790D01*
X173219680Y-49714757D01*
X173182100Y-49903685D01*
X173182100Y-50096315D01*
X173219680Y-50285243D01*
X173293396Y-50463210D01*
X173400415Y-50623375D01*
X173448801Y-50671761D01*
X173448800Y-69395411D01*
X170470337Y-72373876D01*
X170440320Y-72222970D01*
X170382744Y-72083968D01*
X170440320Y-71944966D01*
X170467584Y-71807902D01*
X170596315Y-71807902D01*
X170785243Y-71770322D01*
X170963210Y-71696606D01*
X171123375Y-71589587D01*
X171259585Y-71453377D01*
X171366604Y-71293212D01*
X171440320Y-71115245D01*
X171477900Y-70926317D01*
X171477900Y-70733687D01*
X171440320Y-70544759D01*
X171366604Y-70366792D01*
X171259585Y-70206627D01*
X171211200Y-70158242D01*
X171211200Y-67634928D01*
X171214640Y-67600000D01*
X171211200Y-67565071D01*
X171211200Y-67565064D01*
X171200909Y-67460580D01*
X171181632Y-67397032D01*
X171160242Y-67326518D01*
X171094202Y-67202967D01*
X171085939Y-67192899D01*
X171005327Y-67094673D01*
X170978185Y-67072398D01*
X170727900Y-66822113D01*
X170727900Y-66753685D01*
X170690320Y-66564757D01*
X170616604Y-66386790D01*
X170509585Y-66226625D01*
X170457960Y-66175000D01*
X170509585Y-66123375D01*
X170616604Y-65963210D01*
X170690320Y-65785243D01*
X170727900Y-65596315D01*
X170727900Y-65403685D01*
X170690320Y-65214757D01*
X170616604Y-65036790D01*
X170509585Y-64876625D01*
X170461200Y-64828240D01*
X170461200Y-63074928D01*
X170464640Y-63040000D01*
X170461200Y-63005071D01*
X170461200Y-63005064D01*
X170450909Y-62900580D01*
X170443550Y-62876321D01*
X170410242Y-62766518D01*
X170344202Y-62642967D01*
X170277598Y-62561809D01*
X170277593Y-62561804D01*
X170255327Y-62534673D01*
X170228196Y-62512407D01*
X163597602Y-55881815D01*
X163575327Y-55854673D01*
X163467033Y-55765798D01*
X163343481Y-55699758D01*
X163209420Y-55659091D01*
X163104936Y-55648800D01*
X163104926Y-55648800D01*
X163070000Y-55645360D01*
X163035074Y-55648800D01*
X153674928Y-55648800D01*
X153640000Y-55645360D01*
X153605071Y-55648800D01*
X153605064Y-55648800D01*
X153500580Y-55659091D01*
X153366518Y-55699758D01*
X153242967Y-55765798D01*
X153161809Y-55832402D01*
X153161804Y-55832407D01*
X153134673Y-55854673D01*
X153112407Y-55881804D01*
X146972113Y-62022100D01*
X146903685Y-62022100D01*
X146714757Y-62059680D01*
X146536790Y-62133396D01*
X146376625Y-62240415D01*
X146240415Y-62376625D01*
X146133396Y-62536790D01*
X146059680Y-62714757D01*
X146022100Y-62903685D01*
X140710000Y-62903685D01*
X140710000Y-54965123D01*
X140707011Y-54934778D01*
X140707054Y-54928667D01*
X140706086Y-54918801D01*
X140685685Y-54724705D01*
X140672750Y-54661690D01*
X140660688Y-54598460D01*
X140657823Y-54588970D01*
X140600111Y-54402532D01*
X140575171Y-54343203D01*
X140551068Y-54283545D01*
X140546414Y-54274792D01*
X140453589Y-54103115D01*
X140417619Y-54049787D01*
X140382367Y-53995917D01*
X140376101Y-53988235D01*
X140251698Y-53837857D01*
X140247491Y-53833679D01*
X159170500Y-53833679D01*
X159170500Y-54046321D01*
X159211985Y-54254878D01*
X159293360Y-54451335D01*
X159411498Y-54628141D01*
X159561859Y-54778502D01*
X159738665Y-54896640D01*
X159935122Y-54978015D01*
X160143679Y-55019500D01*
X160356321Y-55019500D01*
X160564878Y-54978015D01*
X160761335Y-54896640D01*
X160938141Y-54778502D01*
X161014643Y-54702000D01*
X163844370Y-54702000D01*
X165980500Y-56838131D01*
X165980500Y-56946321D01*
X166021985Y-57154878D01*
X166103360Y-57351335D01*
X166221498Y-57528141D01*
X166371859Y-57678502D01*
X166548665Y-57796640D01*
X166745122Y-57878015D01*
X166953679Y-57919500D01*
X167166321Y-57919500D01*
X167374878Y-57878015D01*
X167571335Y-57796640D01*
X167748141Y-57678502D01*
X167898502Y-57528141D01*
X168016640Y-57351335D01*
X168098015Y-57154878D01*
X168139500Y-56946321D01*
X168139500Y-56733679D01*
X168098015Y-56525122D01*
X168016640Y-56328665D01*
X167898502Y-56151859D01*
X167748141Y-56001498D01*
X167571335Y-55883360D01*
X167374878Y-55801985D01*
X167166321Y-55760500D01*
X167058131Y-55760500D01*
X164725284Y-53427654D01*
X164701422Y-53398578D01*
X164585392Y-53303355D01*
X164453015Y-53232598D01*
X164309378Y-53189026D01*
X164197426Y-53178000D01*
X164197423Y-53178000D01*
X164160000Y-53174314D01*
X164122577Y-53178000D01*
X161014643Y-53178000D01*
X160938141Y-53101498D01*
X160761335Y-52983360D01*
X160564878Y-52901985D01*
X160356321Y-52860500D01*
X160143679Y-52860500D01*
X159935122Y-52901985D01*
X159738665Y-52983360D01*
X159561859Y-53101498D01*
X159411498Y-53251859D01*
X159293360Y-53428665D01*
X159211985Y-53625122D01*
X159170500Y-53833679D01*
X140247491Y-53833679D01*
X140206043Y-53792520D01*
X140161013Y-53746537D01*
X140153375Y-53740218D01*
X140002133Y-53616868D01*
X139948546Y-53581266D01*
X139895437Y-53544901D01*
X139886716Y-53540186D01*
X139714394Y-53448561D01*
X139654924Y-53424049D01*
X139595752Y-53398688D01*
X139586282Y-53395757D01*
X139399446Y-53339348D01*
X139336316Y-53326848D01*
X139273377Y-53313470D01*
X139263518Y-53312434D01*
X139069792Y-53293439D01*
X139034877Y-53290000D01*
X121034721Y-53290000D01*
X120944336Y-53281138D01*
X120890786Y-53264970D01*
X120841403Y-53238712D01*
X120798053Y-53203357D01*
X120762401Y-53160261D01*
X120735799Y-53111063D01*
X120719258Y-53057625D01*
X120710000Y-52969545D01*
X120710000Y-45603685D01*
X159762100Y-45603685D01*
X159762100Y-45796315D01*
X159799680Y-45985243D01*
X159873396Y-46163210D01*
X159980415Y-46323375D01*
X160116625Y-46459585D01*
X160276790Y-46566604D01*
X160454757Y-46640320D01*
X160643685Y-46677900D01*
X160712113Y-46677900D01*
X171738800Y-57704588D01*
X171738801Y-64218239D01*
X171690415Y-64266625D01*
X171583396Y-64426790D01*
X171509680Y-64604757D01*
X171472100Y-64793685D01*
X171472100Y-64986315D01*
X171509680Y-65175243D01*
X171583396Y-65353210D01*
X171690415Y-65513375D01*
X171826625Y-65649585D01*
X171986790Y-65756604D01*
X172164757Y-65830320D01*
X172353685Y-65867900D01*
X172546315Y-65867900D01*
X172735243Y-65830320D01*
X172913210Y-65756604D01*
X173073375Y-65649585D01*
X173209585Y-65513375D01*
X173316604Y-65353210D01*
X173390320Y-65175243D01*
X173427900Y-64986315D01*
X173427900Y-64793685D01*
X173390320Y-64604757D01*
X173316604Y-64426790D01*
X173209585Y-64266625D01*
X173161200Y-64218240D01*
X173161200Y-57444928D01*
X173164640Y-57410000D01*
X173161200Y-57375071D01*
X173161200Y-57375064D01*
X173150909Y-57270580D01*
X173110242Y-57136519D01*
X173044202Y-57012967D01*
X173024843Y-56989378D01*
X172977597Y-56931809D01*
X172977593Y-56931805D01*
X172955326Y-56904673D01*
X172928195Y-56882407D01*
X162390036Y-46344248D01*
X169545000Y-46344248D01*
X169545000Y-47555751D01*
X169561423Y-47722498D01*
X169626324Y-47936446D01*
X169731716Y-48133623D01*
X169873551Y-48306449D01*
X170046377Y-48448284D01*
X170243553Y-48553676D01*
X170457501Y-48618577D01*
X170680000Y-48640491D01*
X170902498Y-48618577D01*
X171116446Y-48553676D01*
X171313623Y-48448284D01*
X171486449Y-48306449D01*
X171628284Y-48133623D01*
X171733676Y-47936447D01*
X171798577Y-47722499D01*
X171815000Y-47555752D01*
X171815000Y-47366904D01*
X171829978Y-47373108D01*
X172015448Y-47410000D01*
X172204552Y-47410000D01*
X172390022Y-47373108D01*
X172564731Y-47300741D01*
X172721964Y-47195681D01*
X172855681Y-47061964D01*
X172960741Y-46904731D01*
X173033108Y-46730022D01*
X173070000Y-46544552D01*
X173070000Y-46355448D01*
X176930000Y-46355448D01*
X176930000Y-46544552D01*
X176966892Y-46730022D01*
X177039259Y-46904731D01*
X177144319Y-47061964D01*
X177278036Y-47195681D01*
X177435269Y-47300741D01*
X177609978Y-47373108D01*
X177795448Y-47410000D01*
X177984552Y-47410000D01*
X178170022Y-47373108D01*
X178185000Y-47366904D01*
X178185000Y-47555751D01*
X178201423Y-47722498D01*
X178266324Y-47936446D01*
X178371716Y-48133623D01*
X178513551Y-48306449D01*
X178686377Y-48448284D01*
X178883553Y-48553676D01*
X179097501Y-48618577D01*
X179320000Y-48640491D01*
X179542498Y-48618577D01*
X179756446Y-48553676D01*
X179953623Y-48448284D01*
X180126449Y-48306449D01*
X180268284Y-48133623D01*
X180373676Y-47936447D01*
X180438577Y-47722499D01*
X180455000Y-47555752D01*
X180455000Y-46344248D01*
X180438577Y-46177501D01*
X180373676Y-45963553D01*
X180268284Y-45766377D01*
X180126449Y-45593551D01*
X179953623Y-45451716D01*
X179756447Y-45346324D01*
X179542499Y-45281423D01*
X179320000Y-45259509D01*
X179097502Y-45281423D01*
X178883554Y-45346324D01*
X178686378Y-45451716D01*
X178513552Y-45593551D01*
X178450738Y-45670090D01*
X178344731Y-45599259D01*
X178170022Y-45526892D01*
X177984552Y-45490000D01*
X177795448Y-45490000D01*
X177609978Y-45526892D01*
X177435269Y-45599259D01*
X177278036Y-45704319D01*
X177144319Y-45838036D01*
X177039259Y-45995269D01*
X176966892Y-46169978D01*
X176930000Y-46355448D01*
X173070000Y-46355448D01*
X173033108Y-46169978D01*
X172960741Y-45995269D01*
X172855681Y-45838036D01*
X172721964Y-45704319D01*
X172564731Y-45599259D01*
X172390022Y-45526892D01*
X172204552Y-45490000D01*
X172015448Y-45490000D01*
X171829978Y-45526892D01*
X171655269Y-45599259D01*
X171549263Y-45670090D01*
X171486449Y-45593551D01*
X171313623Y-45451716D01*
X171116447Y-45346324D01*
X170902499Y-45281423D01*
X170680000Y-45259509D01*
X170457502Y-45281423D01*
X170243554Y-45346324D01*
X170046378Y-45451716D01*
X169873552Y-45593551D01*
X169731717Y-45766377D01*
X169626324Y-45963553D01*
X169561423Y-46177501D01*
X169545000Y-46344248D01*
X162390036Y-46344248D01*
X161717900Y-45672113D01*
X161717900Y-45603685D01*
X161680320Y-45414757D01*
X161606604Y-45236790D01*
X161499585Y-45076625D01*
X161451206Y-45028246D01*
X161451206Y-44741766D01*
X161499591Y-44693381D01*
X161606610Y-44533216D01*
X161680326Y-44355249D01*
X161717906Y-44166321D01*
X161717906Y-43973691D01*
X161680326Y-43784763D01*
X161606610Y-43606796D01*
X161499591Y-43446631D01*
X161363381Y-43310421D01*
X161203216Y-43203402D01*
X161025249Y-43129686D01*
X160836321Y-43092106D01*
X160643691Y-43092106D01*
X160454763Y-43129686D01*
X160276796Y-43203402D01*
X160116631Y-43310421D01*
X159980421Y-43446631D01*
X159873402Y-43606796D01*
X159799686Y-43784763D01*
X159762106Y-43973691D01*
X159762106Y-44166321D01*
X159799686Y-44355249D01*
X159873402Y-44533216D01*
X159980421Y-44693381D01*
X160028806Y-44741766D01*
X160028807Y-45028233D01*
X159980415Y-45076625D01*
X159873396Y-45236790D01*
X159799680Y-45414757D01*
X159762100Y-45603685D01*
X120710000Y-45603685D01*
X120710000Y-42789721D01*
X120865000Y-42789721D01*
X120865000Y-43210279D01*
X120947047Y-43622756D01*
X121107988Y-44011302D01*
X121341637Y-44360983D01*
X121639017Y-44658363D01*
X121988698Y-44892012D01*
X122377244Y-45052953D01*
X122789721Y-45135000D01*
X123210279Y-45135000D01*
X123622756Y-45052953D01*
X124011302Y-44892012D01*
X124360983Y-44658363D01*
X124658363Y-44360983D01*
X124892012Y-44011302D01*
X125052953Y-43622756D01*
X125135000Y-43210279D01*
X125135000Y-42789721D01*
X125052953Y-42377244D01*
X125026860Y-42314248D01*
X169545000Y-42314248D01*
X169545000Y-43225751D01*
X169561423Y-43392498D01*
X169626324Y-43606446D01*
X169731716Y-43803623D01*
X169873551Y-43976449D01*
X170046377Y-44118284D01*
X170243553Y-44223676D01*
X170457501Y-44288577D01*
X170680000Y-44310491D01*
X170902498Y-44288577D01*
X171116446Y-44223676D01*
X171313623Y-44118284D01*
X171486449Y-43976449D01*
X171628284Y-43803623D01*
X171733676Y-43606447D01*
X171798577Y-43392499D01*
X171815000Y-43225752D01*
X171815000Y-42314249D01*
X171815000Y-42314248D01*
X178185000Y-42314248D01*
X178185000Y-43225751D01*
X178201423Y-43392498D01*
X178266324Y-43606446D01*
X178371716Y-43803623D01*
X178513551Y-43976449D01*
X178686377Y-44118284D01*
X178883553Y-44223676D01*
X179097501Y-44288577D01*
X179320000Y-44310491D01*
X179542498Y-44288577D01*
X179756446Y-44223676D01*
X179953623Y-44118284D01*
X180126449Y-43976449D01*
X180268284Y-43803623D01*
X180373676Y-43606447D01*
X180438577Y-43392499D01*
X180455000Y-43225752D01*
X180455000Y-42789721D01*
X194865000Y-42789721D01*
X194865000Y-43210279D01*
X194947047Y-43622756D01*
X195107988Y-44011302D01*
X195341637Y-44360983D01*
X195639017Y-44658363D01*
X195988698Y-44892012D01*
X196377244Y-45052953D01*
X196789721Y-45135000D01*
X197210279Y-45135000D01*
X197622756Y-45052953D01*
X198011302Y-44892012D01*
X198360983Y-44658363D01*
X198658363Y-44360983D01*
X198892012Y-44011302D01*
X199052953Y-43622756D01*
X199135000Y-43210279D01*
X199135000Y-42789721D01*
X199052953Y-42377244D01*
X198892012Y-41988698D01*
X198658363Y-41639017D01*
X198360983Y-41341637D01*
X198011302Y-41107988D01*
X197622756Y-40947047D01*
X197210279Y-40865000D01*
X196789721Y-40865000D01*
X196377244Y-40947047D01*
X195988698Y-41107988D01*
X195639017Y-41341637D01*
X195341637Y-41639017D01*
X195107988Y-41988698D01*
X194947047Y-42377244D01*
X194865000Y-42789721D01*
X180455000Y-42789721D01*
X180455000Y-42314249D01*
X180438577Y-42147502D01*
X180373676Y-41933553D01*
X180268284Y-41736377D01*
X180126449Y-41563551D01*
X179953623Y-41421716D01*
X179756447Y-41316324D01*
X179542499Y-41251423D01*
X179320000Y-41229509D01*
X179097502Y-41251423D01*
X178883554Y-41316324D01*
X178686378Y-41421716D01*
X178513552Y-41563551D01*
X178371717Y-41736377D01*
X178266324Y-41933553D01*
X178201423Y-42147501D01*
X178185000Y-42314248D01*
X171815000Y-42314248D01*
X171798577Y-42147502D01*
X171733676Y-41933553D01*
X171628284Y-41736377D01*
X171486449Y-41563551D01*
X171313623Y-41421716D01*
X171116447Y-41316324D01*
X170902499Y-41251423D01*
X170680000Y-41229509D01*
X170457502Y-41251423D01*
X170243554Y-41316324D01*
X170046378Y-41421716D01*
X169873552Y-41563551D01*
X169731717Y-41736377D01*
X169626324Y-41933553D01*
X169561423Y-42147501D01*
X169545000Y-42314248D01*
X125026860Y-42314248D01*
X124892012Y-41988698D01*
X124658363Y-41639017D01*
X124360983Y-41341637D01*
X124011302Y-41107988D01*
X123622756Y-40947047D01*
X123210279Y-40865000D01*
X122789721Y-40865000D01*
X122377244Y-40947047D01*
X121988698Y-41107988D01*
X121639017Y-41341637D01*
X121341637Y-41639017D01*
X121107988Y-41988698D01*
X120947047Y-42377244D01*
X120865000Y-42789721D01*
X120710000Y-42789721D01*
X120710000Y-41034722D01*
X120718863Y-40944335D01*
X120735030Y-40890786D01*
X120761288Y-40841403D01*
X120796641Y-40798055D01*
X120839740Y-40762400D01*
X120888937Y-40735799D01*
X120942375Y-40719258D01*
X121030455Y-40710000D01*
X198965278Y-40710000D01*
X199055665Y-40718863D01*
X199055665Y-40718863D01*
G37*
X199055665Y-40718863D02*
X199109214Y-40735030D01*
X199158597Y-40761288D01*
X199201945Y-40796641D01*
X199237600Y-40839740D01*
X199264201Y-40888937D01*
X199280742Y-40942375D01*
X199290000Y-41030455D01*
X199290001Y-98965269D01*
X199281138Y-99055664D01*
X199264970Y-99109214D01*
X199238712Y-99158597D01*
X199203357Y-99201947D01*
X199160261Y-99237599D01*
X199111063Y-99264201D01*
X199057625Y-99280742D01*
X198969545Y-99290000D01*
X121034721Y-99290000D01*
X120944336Y-99281138D01*
X120890786Y-99264970D01*
X120841403Y-99238712D01*
X120798053Y-99203357D01*
X120762401Y-99160261D01*
X120735799Y-99111063D01*
X120719258Y-99057625D01*
X120710000Y-98969545D01*
X120710000Y-96789721D01*
X120865000Y-96789721D01*
X120865000Y-97210279D01*
X120947047Y-97622756D01*
X121107988Y-98011302D01*
X121341637Y-98360983D01*
X121639017Y-98658363D01*
X121988698Y-98892012D01*
X122377244Y-99052953D01*
X122789721Y-99135000D01*
X123210279Y-99135000D01*
X123622756Y-99052953D01*
X124011302Y-98892012D01*
X124360983Y-98658363D01*
X124658363Y-98360983D01*
X124892012Y-98011302D01*
X125052953Y-97622756D01*
X125135000Y-97210279D01*
X125135000Y-96789721D01*
X125052953Y-96377244D01*
X124892012Y-95988698D01*
X124658363Y-95639017D01*
X124607558Y-95588212D01*
X172085000Y-95588212D01*
X172085000Y-95811788D01*
X172128617Y-96031067D01*
X172214176Y-96237624D01*
X172338388Y-96423520D01*
X172496480Y-96581612D01*
X172682376Y-96705824D01*
X172888933Y-96791383D01*
X173108212Y-96835000D01*
X173331788Y-96835000D01*
X173551067Y-96791383D01*
X173757624Y-96705824D01*
X173943520Y-96581612D01*
X174101612Y-96423520D01*
X174225824Y-96237624D01*
X174311383Y-96031067D01*
X174355000Y-95811788D01*
X174355000Y-95588212D01*
X180065000Y-95588212D01*
X180065000Y-95811788D01*
X180108617Y-96031067D01*
X180194176Y-96237624D01*
X180318388Y-96423520D01*
X180476480Y-96581612D01*
X180662376Y-96705824D01*
X180868933Y-96791383D01*
X181088212Y-96835000D01*
X181311788Y-96835000D01*
X181531067Y-96791383D01*
X181535079Y-96789721D01*
X194865000Y-96789721D01*
X194865000Y-97210279D01*
X194947047Y-97622756D01*
X195107988Y-98011302D01*
X195341637Y-98360983D01*
X195639017Y-98658363D01*
X195988698Y-98892012D01*
X196377244Y-99052953D01*
X196789721Y-99135000D01*
X197210279Y-99135000D01*
X197622756Y-99052953D01*
X198011302Y-98892012D01*
X198360983Y-98658363D01*
X198658363Y-98360983D01*
X198892012Y-98011302D01*
X199052953Y-97622756D01*
X199135000Y-97210279D01*
X199135000Y-96789721D01*
X199052953Y-96377244D01*
X198892012Y-95988698D01*
X198658363Y-95639017D01*
X198360983Y-95341637D01*
X198011302Y-95107988D01*
X197622756Y-94947047D01*
X197210279Y-94865000D01*
X196789721Y-94865000D01*
X196377244Y-94947047D01*
X195988698Y-95107988D01*
X195639017Y-95341637D01*
X195341637Y-95639017D01*
X195107988Y-95988698D01*
X194947047Y-96377244D01*
X194865000Y-96789721D01*
X181535079Y-96789721D01*
X181737624Y-96705824D01*
X181923520Y-96581612D01*
X182081612Y-96423520D01*
X182205824Y-96237624D01*
X182291383Y-96031067D01*
X182335000Y-95811788D01*
X182335000Y-95588212D01*
X182291383Y-95368933D01*
X182205824Y-95162376D01*
X182081612Y-94976480D01*
X181923520Y-94818388D01*
X181737624Y-94694176D01*
X181531067Y-94608617D01*
X181311788Y-94565000D01*
X181088212Y-94565000D01*
X180868933Y-94608617D01*
X180662376Y-94694176D01*
X180476480Y-94818388D01*
X180318388Y-94976480D01*
X180194176Y-95162376D01*
X180108617Y-95368933D01*
X180065000Y-95588212D01*
X174355000Y-95588212D01*
X174311383Y-95368933D01*
X174225824Y-95162376D01*
X174101612Y-94976480D01*
X173943520Y-94818388D01*
X173757624Y-94694176D01*
X173551067Y-94608617D01*
X173331788Y-94565000D01*
X173108212Y-94565000D01*
X172888933Y-94608617D01*
X172682376Y-94694176D01*
X172496480Y-94818388D01*
X172338388Y-94976480D01*
X172214176Y-95162376D01*
X172128617Y-95368933D01*
X172085000Y-95588212D01*
X124607558Y-95588212D01*
X124360983Y-95341637D01*
X124011302Y-95107988D01*
X123622756Y-94947047D01*
X123210279Y-94865000D01*
X122789721Y-94865000D01*
X122377244Y-94947047D01*
X121988698Y-95107988D01*
X121639017Y-95341637D01*
X121341637Y-95639017D01*
X121107988Y-95988698D01*
X120947047Y-96377244D01*
X120865000Y-96789721D01*
X120710000Y-96789721D01*
X120710000Y-87034722D01*
X120718863Y-86944335D01*
X120735030Y-86890786D01*
X120761288Y-86841403D01*
X120796641Y-86798055D01*
X120839740Y-86762400D01*
X120888937Y-86735799D01*
X120942375Y-86719258D01*
X121030455Y-86710000D01*
X139034877Y-86710000D01*
X139065222Y-86707011D01*
X139071332Y-86707054D01*
X139081198Y-86706086D01*
X139275295Y-86685685D01*
X139338310Y-86672750D01*
X139401540Y-86660688D01*
X139411030Y-86657823D01*
X139597468Y-86600111D01*
X139656797Y-86575171D01*
X139716455Y-86551068D01*
X139725208Y-86546414D01*
X139896885Y-86453589D01*
X139950198Y-86417629D01*
X140004083Y-86382367D01*
X140011765Y-86376102D01*
X140162143Y-86251698D01*
X140207480Y-86206043D01*
X140253463Y-86161013D01*
X140259782Y-86153375D01*
X140383132Y-86002133D01*
X140418757Y-85948513D01*
X140455099Y-85895436D01*
X140459814Y-85886716D01*
X140551439Y-85714394D01*
X140575951Y-85654924D01*
X140601312Y-85595752D01*
X140604243Y-85586282D01*
X140660652Y-85399446D01*
X140673152Y-85336316D01*
X140686530Y-85273377D01*
X140687566Y-85263519D01*
X140706611Y-85069285D01*
X140710000Y-85034877D01*
X140710000Y-62903685D01*
X146022100Y-62903685D01*
X146022100Y-63096315D01*
X146059680Y-63285243D01*
X146133396Y-63463210D01*
X146157978Y-63500000D01*
X146133396Y-63536790D01*
X146059680Y-63714757D01*
X146022100Y-63903685D01*
X146022100Y-64096315D01*
X146059680Y-64285243D01*
X146133396Y-64463210D01*
X146157978Y-64500000D01*
X146133396Y-64536790D01*
X146059680Y-64714757D01*
X146022100Y-64903685D01*
X146022100Y-65096315D01*
X146059680Y-65285243D01*
X146133396Y-65463210D01*
X146157978Y-65500000D01*
X146133396Y-65536790D01*
X146059680Y-65714757D01*
X146022100Y-65903685D01*
X146022100Y-66096315D01*
X146059680Y-66285243D01*
X146133396Y-66463210D01*
X146157978Y-66500000D01*
X146133396Y-66536790D01*
X146059680Y-66714757D01*
X146022100Y-66903685D01*
X146022100Y-67096315D01*
X146059680Y-67285243D01*
X146133396Y-67463210D01*
X146240415Y-67623375D01*
X146376625Y-67759585D01*
X146536790Y-67866604D01*
X146714757Y-67940320D01*
X146903685Y-67977900D01*
X147096315Y-67977900D01*
X147285243Y-67940320D01*
X147463210Y-67866604D01*
X147623375Y-67759585D01*
X147759585Y-67623375D01*
X147866604Y-67463210D01*
X147940320Y-67285243D01*
X147977900Y-67096315D01*
X147977900Y-67027887D01*
X155042407Y-59963382D01*
X155022100Y-60065472D01*
X155022100Y-60258102D01*
X155059680Y-60447030D01*
X155115128Y-60580894D01*
X155059680Y-60714757D01*
X155022100Y-60903685D01*
X155022100Y-61096315D01*
X155059680Y-61285243D01*
X155133396Y-61463210D01*
X155223879Y-61598627D01*
X155133325Y-61734151D01*
X155059609Y-61912118D01*
X155022029Y-62101046D01*
X155022029Y-62293676D01*
X155059609Y-62482604D01*
X155103823Y-62589346D01*
X155037265Y-62750032D01*
X154999685Y-62938960D01*
X154999685Y-63131590D01*
X155037265Y-63320518D01*
X155094001Y-63457491D01*
X155039843Y-63588240D01*
X155002263Y-63777168D01*
X155002263Y-63969798D01*
X155039843Y-64158726D01*
X155113559Y-64336693D01*
X155220578Y-64496858D01*
X155356788Y-64633068D01*
X155516953Y-64740087D01*
X155694920Y-64813803D01*
X155883848Y-64851383D01*
X156076478Y-64851383D01*
X156265406Y-64813803D01*
X156443373Y-64740087D01*
X156603538Y-64633068D01*
X156651923Y-64584683D01*
X159918895Y-64584683D01*
X160078191Y-64743979D01*
X160078196Y-64743983D01*
X161862100Y-66527889D01*
X161862100Y-66596315D01*
X161899680Y-66785243D01*
X161973396Y-66963210D01*
X162080415Y-67123375D01*
X162095838Y-67138798D01*
X153984927Y-67138798D01*
X153950001Y-67135358D01*
X153915075Y-67138798D01*
X153915066Y-67138798D01*
X153810582Y-67149089D01*
X153676521Y-67189756D01*
X153552969Y-67255796D01*
X153444675Y-67344671D01*
X153422405Y-67371807D01*
X152172113Y-68622100D01*
X152103685Y-68622100D01*
X151914757Y-68659680D01*
X151736790Y-68733396D01*
X151576625Y-68840415D01*
X151440415Y-68976625D01*
X151333396Y-69136790D01*
X151259680Y-69314757D01*
X151222100Y-69503685D01*
X151222100Y-69696315D01*
X151259680Y-69885243D01*
X151327924Y-70050000D01*
X151259680Y-70214757D01*
X151222100Y-70403685D01*
X151222100Y-70596315D01*
X151259680Y-70785243D01*
X151327924Y-70950000D01*
X151259680Y-71114757D01*
X151222100Y-71303685D01*
X151222100Y-71496315D01*
X151259680Y-71685243D01*
X151333396Y-71863210D01*
X151440415Y-72023375D01*
X151567040Y-72150000D01*
X151440415Y-72276625D01*
X151333396Y-72436790D01*
X151259680Y-72614757D01*
X151222100Y-72803685D01*
X151222100Y-72996315D01*
X151259680Y-73185243D01*
X151327924Y-73350000D01*
X151259680Y-73514757D01*
X151222100Y-73703685D01*
X151222100Y-73896315D01*
X151259680Y-74085243D01*
X151327924Y-74250000D01*
X151259680Y-74414757D01*
X151222100Y-74603685D01*
X151222100Y-74796315D01*
X151259680Y-74985243D01*
X151333396Y-75163210D01*
X151440415Y-75323375D01*
X151576625Y-75459585D01*
X151736790Y-75566604D01*
X151914757Y-75640320D01*
X152103685Y-75677900D01*
X152296315Y-75677900D01*
X152485243Y-75640320D01*
X152663210Y-75566604D01*
X152823375Y-75459585D01*
X152871760Y-75411200D01*
X164515074Y-75411200D01*
X164550000Y-75414640D01*
X164584926Y-75411200D01*
X164584936Y-75411200D01*
X164689420Y-75400909D01*
X164823481Y-75360242D01*
X164947033Y-75294202D01*
X165027822Y-75227900D01*
X165096315Y-75227900D01*
X165285243Y-75190320D01*
X165463210Y-75116604D01*
X165623375Y-75009585D01*
X165759585Y-74873375D01*
X165866604Y-74713210D01*
X165940320Y-74535243D01*
X165977900Y-74346315D01*
X165977900Y-74153685D01*
X165940320Y-73964757D01*
X165872076Y-73800000D01*
X165940320Y-73635243D01*
X165977900Y-73446315D01*
X165977900Y-73253685D01*
X165940320Y-73064757D01*
X165898849Y-72964636D01*
X167702407Y-74768196D01*
X167724673Y-74795327D01*
X167751804Y-74817593D01*
X167751808Y-74817597D01*
X167778400Y-74839420D01*
X167832967Y-74884202D01*
X167956519Y-74950242D01*
X168090580Y-74990909D01*
X168195064Y-75001200D01*
X168195081Y-75001200D01*
X168229999Y-75004639D01*
X168264917Y-75001200D01*
X170063013Y-75001200D01*
X168684532Y-76379681D01*
X162332641Y-76379681D01*
X162284256Y-76331296D01*
X162124091Y-76224277D01*
X161946124Y-76150561D01*
X161757196Y-76112981D01*
X161564566Y-76112981D01*
X161375638Y-76150561D01*
X161197671Y-76224277D01*
X161037506Y-76331296D01*
X160901296Y-76467506D01*
X160794277Y-76627671D01*
X160720561Y-76805638D01*
X160682981Y-76994566D01*
X160682981Y-77187196D01*
X160720561Y-77376124D01*
X160794277Y-77554091D01*
X160901296Y-77714256D01*
X161037506Y-77850466D01*
X161197671Y-77957485D01*
X161375638Y-78031201D01*
X161564566Y-78068781D01*
X161757196Y-78068781D01*
X161946124Y-78031201D01*
X162124091Y-77957485D01*
X162284256Y-77850466D01*
X162332641Y-77802081D01*
X163042310Y-77802081D01*
X163022100Y-77903685D01*
X163022100Y-78096315D01*
X163059680Y-78285243D01*
X163133396Y-78463210D01*
X163240415Y-78623375D01*
X163376625Y-78759585D01*
X163536790Y-78866604D01*
X163714757Y-78940320D01*
X163903685Y-78977900D01*
X163972113Y-78977900D01*
X164033013Y-79038800D01*
X161816588Y-79038800D01*
X161489900Y-78712113D01*
X161489900Y-78643685D01*
X161452320Y-78454757D01*
X161378604Y-78276790D01*
X161271585Y-78116625D01*
X161135375Y-77980415D01*
X160975210Y-77873396D01*
X160797243Y-77799680D01*
X160608315Y-77762100D01*
X160415685Y-77762100D01*
X160226757Y-77799680D01*
X160048790Y-77873396D01*
X160004000Y-77903324D01*
X159959210Y-77873396D01*
X159781243Y-77799680D01*
X159592315Y-77762100D01*
X159399685Y-77762100D01*
X159210757Y-77799680D01*
X159032790Y-77873396D01*
X158988000Y-77903324D01*
X158943210Y-77873396D01*
X158765243Y-77799680D01*
X158576315Y-77762100D01*
X158383685Y-77762100D01*
X158194757Y-77799680D01*
X158016790Y-77873396D01*
X157856625Y-77980415D01*
X157720415Y-78116625D01*
X157613396Y-78276790D01*
X157539680Y-78454757D01*
X157502100Y-78643685D01*
X157502100Y-78836315D01*
X157539680Y-79025243D01*
X157613396Y-79203210D01*
X157720415Y-79363375D01*
X157856625Y-79499585D01*
X158016790Y-79606604D01*
X158194757Y-79680320D01*
X158383685Y-79717900D01*
X158452113Y-79717900D01*
X159962403Y-81228191D01*
X159984673Y-81255327D01*
X160092967Y-81344202D01*
X160216519Y-81410242D01*
X160350580Y-81450909D01*
X160455064Y-81461200D01*
X160455071Y-81461200D01*
X160490000Y-81464640D01*
X160524928Y-81461200D01*
X161776502Y-81461200D01*
X161813962Y-81649525D01*
X161887678Y-81827492D01*
X161994697Y-81987657D01*
X162130907Y-82123867D01*
X162291072Y-82230886D01*
X162469039Y-82304602D01*
X162657967Y-82342182D01*
X162726395Y-82342182D01*
X163772403Y-83388191D01*
X163794673Y-83415327D01*
X163902967Y-83504202D01*
X164026519Y-83570242D01*
X164160580Y-83610909D01*
X164265064Y-83621200D01*
X164265071Y-83621200D01*
X164300000Y-83624640D01*
X164334928Y-83621200D01*
X169588240Y-83621200D01*
X169636625Y-83669585D01*
X169796790Y-83776604D01*
X169974757Y-83850320D01*
X170163685Y-83887900D01*
X170356315Y-83887900D01*
X170545243Y-83850320D01*
X170723210Y-83776604D01*
X170883375Y-83669585D01*
X171019585Y-83533375D01*
X171126604Y-83373210D01*
X171200320Y-83195243D01*
X171237900Y-83006315D01*
X171237900Y-82813685D01*
X171200320Y-82624757D01*
X171126604Y-82446790D01*
X171019585Y-82286625D01*
X170883375Y-82150415D01*
X170723210Y-82043396D01*
X170545243Y-81969680D01*
X170356315Y-81932100D01*
X170163685Y-81932100D01*
X169974757Y-81969680D01*
X169796790Y-82043396D01*
X169636625Y-82150415D01*
X169588240Y-82198800D01*
X164594588Y-82198800D01*
X163856987Y-81461200D01*
X166088240Y-81461200D01*
X166136625Y-81509585D01*
X166296790Y-81616604D01*
X166474757Y-81690320D01*
X166663685Y-81727900D01*
X166856315Y-81727900D01*
X167045243Y-81690320D01*
X167223210Y-81616604D01*
X167383375Y-81509585D01*
X167390671Y-81502289D01*
X167546790Y-81606604D01*
X167724757Y-81680320D01*
X167913685Y-81717900D01*
X168106315Y-81717900D01*
X168295243Y-81680320D01*
X168473210Y-81606604D01*
X168604898Y-81518613D01*
X168646790Y-81546604D01*
X168824757Y-81620320D01*
X169013685Y-81657900D01*
X169206315Y-81657900D01*
X169395243Y-81620320D01*
X169573210Y-81546604D01*
X169733375Y-81439585D01*
X169869585Y-81303375D01*
X169976604Y-81143210D01*
X170050320Y-80965243D01*
X170060131Y-80915919D01*
X171061221Y-81917009D01*
X171061221Y-81987650D01*
X171098801Y-82176578D01*
X171172517Y-82354545D01*
X171279536Y-82514710D01*
X171415746Y-82650920D01*
X171575911Y-82757939D01*
X171753878Y-82831655D01*
X171942806Y-82869235D01*
X172135436Y-82869235D01*
X172324364Y-82831655D01*
X172502331Y-82757939D01*
X172662496Y-82650920D01*
X172798706Y-82514710D01*
X172905725Y-82354545D01*
X172979441Y-82176578D01*
X172991278Y-82117067D01*
X173018806Y-82144595D01*
X173018806Y-82238240D01*
X172970421Y-82286625D01*
X172863402Y-82446790D01*
X172789686Y-82624757D01*
X172752106Y-82813685D01*
X172752106Y-83006315D01*
X172789686Y-83195243D01*
X172863402Y-83373210D01*
X172970421Y-83533375D01*
X173106631Y-83669585D01*
X173266796Y-83776604D01*
X173444763Y-83850320D01*
X173633691Y-83887900D01*
X173826321Y-83887900D01*
X174015249Y-83850320D01*
X174193216Y-83776604D01*
X174353381Y-83669585D01*
X174489591Y-83533375D01*
X174596610Y-83373210D01*
X174670326Y-83195243D01*
X174707906Y-83006315D01*
X174707906Y-82813685D01*
X174670326Y-82624757D01*
X174619789Y-82502749D01*
X174726625Y-82609585D01*
X174886790Y-82716604D01*
X175064757Y-82790320D01*
X175253685Y-82827900D01*
X175446315Y-82827900D01*
X175635243Y-82790320D01*
X175813210Y-82716604D01*
X175973375Y-82609585D01*
X176109585Y-82473375D01*
X176216604Y-82313210D01*
X176290320Y-82135243D01*
X176327900Y-81946315D01*
X176327900Y-81753685D01*
X176290320Y-81564757D01*
X176216604Y-81386790D01*
X176109585Y-81226625D01*
X175973375Y-81090415D01*
X175813210Y-80983396D01*
X175635243Y-80909680D01*
X175446315Y-80872100D01*
X175377889Y-80872100D01*
X172027602Y-77521815D01*
X172005327Y-77494673D01*
X171897033Y-77405798D01*
X171773481Y-77339758D01*
X171639420Y-77299091D01*
X171534936Y-77288800D01*
X171534926Y-77288800D01*
X171500000Y-77285360D01*
X171465074Y-77288800D01*
X169786987Y-77288800D01*
X187267888Y-59807900D01*
X187336315Y-59807900D01*
X187525243Y-59770320D01*
X187703210Y-59696604D01*
X187863375Y-59589585D01*
X187999585Y-59453375D01*
X188106604Y-59293210D01*
X188180320Y-59115243D01*
X188217900Y-58926315D01*
X188217900Y-58733685D01*
X188180320Y-58544757D01*
X188106604Y-58366790D01*
X187999585Y-58206625D01*
X187863375Y-58070415D01*
X187819574Y-58041148D01*
X190248201Y-55612521D01*
X190275326Y-55590260D01*
X190297588Y-55563134D01*
X190297597Y-55563125D01*
X190364202Y-55481966D01*
X190430241Y-55358415D01*
X190430242Y-55358414D01*
X190470909Y-55224353D01*
X190481200Y-55119869D01*
X190481200Y-55119860D01*
X190484640Y-55084934D01*
X190481200Y-55050008D01*
X190481200Y-54171760D01*
X190529585Y-54123375D01*
X190636604Y-53963210D01*
X190710320Y-53785243D01*
X190747900Y-53596315D01*
X190747900Y-53403685D01*
X190710320Y-53214757D01*
X190636604Y-53036790D01*
X190529585Y-52876625D01*
X190393375Y-52740415D01*
X190233210Y-52633396D01*
X190055243Y-52559680D01*
X189866315Y-52522100D01*
X189673685Y-52522100D01*
X189484757Y-52559680D01*
X189306790Y-52633396D01*
X189146625Y-52740415D01*
X189010415Y-52876625D01*
X188903396Y-53036790D01*
X188829680Y-53214757D01*
X188792100Y-53403685D01*
X188792100Y-53596315D01*
X188829680Y-53785243D01*
X188903396Y-53963210D01*
X189010415Y-54123375D01*
X189058801Y-54171761D01*
X189058800Y-54790344D01*
X179492692Y-64356453D01*
X179446640Y-64245275D01*
X179328502Y-64068469D01*
X179178141Y-63918108D01*
X179001335Y-63799970D01*
X178804878Y-63718595D01*
X178596321Y-63677110D01*
X178488131Y-63677110D01*
X177068674Y-62257654D01*
X177044812Y-62228578D01*
X176928782Y-62133355D01*
X176796405Y-62062598D01*
X176652768Y-62019026D01*
X176561726Y-62010059D01*
X176483165Y-61931498D01*
X176306359Y-61813360D01*
X176109902Y-61731985D01*
X175901345Y-61690500D01*
X175711200Y-61690500D01*
X175711200Y-50143685D01*
X175732100Y-50143685D01*
X175732100Y-50336315D01*
X175769680Y-50525243D01*
X175843396Y-50703210D01*
X175950415Y-50863375D01*
X176086625Y-50999585D01*
X176246790Y-51106604D01*
X176424757Y-51180320D01*
X176613685Y-51217900D01*
X176682112Y-51217900D01*
X177132403Y-51668190D01*
X177154673Y-51695327D01*
X177262967Y-51784202D01*
X177386519Y-51850242D01*
X177520580Y-51890909D01*
X177625064Y-51901200D01*
X177625071Y-51901200D01*
X177660000Y-51904640D01*
X177694928Y-51901200D01*
X179325284Y-51901200D01*
X179363396Y-51993210D01*
X179470415Y-52153375D01*
X179606625Y-52289585D01*
X179766790Y-52396604D01*
X179944757Y-52470320D01*
X180133685Y-52507900D01*
X180326315Y-52507900D01*
X180515243Y-52470320D01*
X180693210Y-52396604D01*
X180853375Y-52289585D01*
X180989585Y-52153375D01*
X181096604Y-51993210D01*
X181170320Y-51815243D01*
X181207900Y-51626315D01*
X181207900Y-51433685D01*
X181170320Y-51244757D01*
X181096604Y-51066790D01*
X180989585Y-50906625D01*
X180853375Y-50770415D01*
X180693210Y-50663396D01*
X180515243Y-50589680D01*
X180326315Y-50552100D01*
X180205280Y-50552100D01*
X180163481Y-50529758D01*
X180029420Y-50489091D01*
X179924936Y-50478800D01*
X179924926Y-50478800D01*
X179890000Y-50475360D01*
X179855074Y-50478800D01*
X177954588Y-50478800D01*
X177687900Y-50212112D01*
X177687900Y-50143685D01*
X177650320Y-49954757D01*
X177576604Y-49776790D01*
X177469585Y-49616625D01*
X177333375Y-49480415D01*
X177173210Y-49373396D01*
X176995243Y-49299680D01*
X176806315Y-49262100D01*
X176613685Y-49262100D01*
X176424757Y-49299680D01*
X176246790Y-49373396D01*
X176086625Y-49480415D01*
X175950415Y-49616625D01*
X175843396Y-49776790D01*
X175769680Y-49954757D01*
X175732100Y-50143685D01*
X175711200Y-50143685D01*
X175711200Y-49671760D01*
X175759585Y-49623375D01*
X175866604Y-49463210D01*
X175940320Y-49285243D01*
X175977900Y-49096315D01*
X175977900Y-48903685D01*
X175940320Y-48714757D01*
X175866604Y-48536790D01*
X175759585Y-48376625D01*
X175623375Y-48240415D01*
X175463210Y-48133396D01*
X175285243Y-48059680D01*
X175096315Y-48022100D01*
X174903685Y-48022100D01*
X174714757Y-48059680D01*
X174536790Y-48133396D01*
X174376625Y-48240415D01*
X174240415Y-48376625D01*
X174133396Y-48536790D01*
X174059680Y-48714757D01*
X174022100Y-48903685D01*
X174022100Y-49030372D01*
X173874757Y-49059680D01*
X173696790Y-49133396D01*
X173536625Y-49240415D01*
X173400415Y-49376625D01*
X173293396Y-49536790D01*
X173219680Y-49714757D01*
X173182100Y-49903685D01*
X173182100Y-50096315D01*
X173219680Y-50285243D01*
X173293396Y-50463210D01*
X173400415Y-50623375D01*
X173448801Y-50671761D01*
X173448800Y-69395411D01*
X170470337Y-72373876D01*
X170440320Y-72222970D01*
X170382744Y-72083968D01*
X170440320Y-71944966D01*
X170467584Y-71807902D01*
X170596315Y-71807902D01*
X170785243Y-71770322D01*
X170963210Y-71696606D01*
X171123375Y-71589587D01*
X171259585Y-71453377D01*
X171366604Y-71293212D01*
X171440320Y-71115245D01*
X171477900Y-70926317D01*
X171477900Y-70733687D01*
X171440320Y-70544759D01*
X171366604Y-70366792D01*
X171259585Y-70206627D01*
X171211200Y-70158242D01*
X171211200Y-67634928D01*
X171214640Y-67600000D01*
X171211200Y-67565071D01*
X171211200Y-67565064D01*
X171200909Y-67460580D01*
X171181632Y-67397032D01*
X171160242Y-67326518D01*
X171094202Y-67202967D01*
X171085939Y-67192899D01*
X171005327Y-67094673D01*
X170978185Y-67072398D01*
X170727900Y-66822113D01*
X170727900Y-66753685D01*
X170690320Y-66564757D01*
X170616604Y-66386790D01*
X170509585Y-66226625D01*
X170457960Y-66175000D01*
X170509585Y-66123375D01*
X170616604Y-65963210D01*
X170690320Y-65785243D01*
X170727900Y-65596315D01*
X170727900Y-65403685D01*
X170690320Y-65214757D01*
X170616604Y-65036790D01*
X170509585Y-64876625D01*
X170461200Y-64828240D01*
X170461200Y-63074928D01*
X170464640Y-63040000D01*
X170461200Y-63005071D01*
X170461200Y-63005064D01*
X170450909Y-62900580D01*
X170443550Y-62876321D01*
X170410242Y-62766518D01*
X170344202Y-62642967D01*
X170277598Y-62561809D01*
X170277593Y-62561804D01*
X170255327Y-62534673D01*
X170228196Y-62512407D01*
X163597602Y-55881815D01*
X163575327Y-55854673D01*
X163467033Y-55765798D01*
X163343481Y-55699758D01*
X163209420Y-55659091D01*
X163104936Y-55648800D01*
X163104926Y-55648800D01*
X163070000Y-55645360D01*
X163035074Y-55648800D01*
X153674928Y-55648800D01*
X153640000Y-55645360D01*
X153605071Y-55648800D01*
X153605064Y-55648800D01*
X153500580Y-55659091D01*
X153366518Y-55699758D01*
X153242967Y-55765798D01*
X153161809Y-55832402D01*
X153161804Y-55832407D01*
X153134673Y-55854673D01*
X153112407Y-55881804D01*
X146972113Y-62022100D01*
X146903685Y-62022100D01*
X146714757Y-62059680D01*
X146536790Y-62133396D01*
X146376625Y-62240415D01*
X146240415Y-62376625D01*
X146133396Y-62536790D01*
X146059680Y-62714757D01*
X146022100Y-62903685D01*
X140710000Y-62903685D01*
X140710000Y-54965123D01*
X140707011Y-54934778D01*
X140707054Y-54928667D01*
X140706086Y-54918801D01*
X140685685Y-54724705D01*
X140672750Y-54661690D01*
X140660688Y-54598460D01*
X140657823Y-54588970D01*
X140600111Y-54402532D01*
X140575171Y-54343203D01*
X140551068Y-54283545D01*
X140546414Y-54274792D01*
X140453589Y-54103115D01*
X140417619Y-54049787D01*
X140382367Y-53995917D01*
X140376101Y-53988235D01*
X140251698Y-53837857D01*
X140247491Y-53833679D01*
X159170500Y-53833679D01*
X159170500Y-54046321D01*
X159211985Y-54254878D01*
X159293360Y-54451335D01*
X159411498Y-54628141D01*
X159561859Y-54778502D01*
X159738665Y-54896640D01*
X159935122Y-54978015D01*
X160143679Y-55019500D01*
X160356321Y-55019500D01*
X160564878Y-54978015D01*
X160761335Y-54896640D01*
X160938141Y-54778502D01*
X161014643Y-54702000D01*
X163844370Y-54702000D01*
X165980500Y-56838131D01*
X165980500Y-56946321D01*
X166021985Y-57154878D01*
X166103360Y-57351335D01*
X166221498Y-57528141D01*
X166371859Y-57678502D01*
X166548665Y-57796640D01*
X166745122Y-57878015D01*
X166953679Y-57919500D01*
X167166321Y-57919500D01*
X167374878Y-57878015D01*
X167571335Y-57796640D01*
X167748141Y-57678502D01*
X167898502Y-57528141D01*
X168016640Y-57351335D01*
X168098015Y-57154878D01*
X168139500Y-56946321D01*
X168139500Y-56733679D01*
X168098015Y-56525122D01*
X168016640Y-56328665D01*
X167898502Y-56151859D01*
X167748141Y-56001498D01*
X167571335Y-55883360D01*
X167374878Y-55801985D01*
X167166321Y-55760500D01*
X167058131Y-55760500D01*
X164725284Y-53427654D01*
X164701422Y-53398578D01*
X164585392Y-53303355D01*
X164453015Y-53232598D01*
X164309378Y-53189026D01*
X164197426Y-53178000D01*
X164197423Y-53178000D01*
X164160000Y-53174314D01*
X164122577Y-53178000D01*
X161014643Y-53178000D01*
X160938141Y-53101498D01*
X160761335Y-52983360D01*
X160564878Y-52901985D01*
X160356321Y-52860500D01*
X160143679Y-52860500D01*
X159935122Y-52901985D01*
X159738665Y-52983360D01*
X159561859Y-53101498D01*
X159411498Y-53251859D01*
X159293360Y-53428665D01*
X159211985Y-53625122D01*
X159170500Y-53833679D01*
X140247491Y-53833679D01*
X140206043Y-53792520D01*
X140161013Y-53746537D01*
X140153375Y-53740218D01*
X140002133Y-53616868D01*
X139948546Y-53581266D01*
X139895437Y-53544901D01*
X139886716Y-53540186D01*
X139714394Y-53448561D01*
X139654924Y-53424049D01*
X139595752Y-53398688D01*
X139586282Y-53395757D01*
X139399446Y-53339348D01*
X139336316Y-53326848D01*
X139273377Y-53313470D01*
X139263518Y-53312434D01*
X139069792Y-53293439D01*
X139034877Y-53290000D01*
X121034721Y-53290000D01*
X120944336Y-53281138D01*
X120890786Y-53264970D01*
X120841403Y-53238712D01*
X120798053Y-53203357D01*
X120762401Y-53160261D01*
X120735799Y-53111063D01*
X120719258Y-53057625D01*
X120710000Y-52969545D01*
X120710000Y-45603685D01*
X159762100Y-45603685D01*
X159762100Y-45796315D01*
X159799680Y-45985243D01*
X159873396Y-46163210D01*
X159980415Y-46323375D01*
X160116625Y-46459585D01*
X160276790Y-46566604D01*
X160454757Y-46640320D01*
X160643685Y-46677900D01*
X160712113Y-46677900D01*
X171738800Y-57704588D01*
X171738801Y-64218239D01*
X171690415Y-64266625D01*
X171583396Y-64426790D01*
X171509680Y-64604757D01*
X171472100Y-64793685D01*
X171472100Y-64986315D01*
X171509680Y-65175243D01*
X171583396Y-65353210D01*
X171690415Y-65513375D01*
X171826625Y-65649585D01*
X171986790Y-65756604D01*
X172164757Y-65830320D01*
X172353685Y-65867900D01*
X172546315Y-65867900D01*
X172735243Y-65830320D01*
X172913210Y-65756604D01*
X173073375Y-65649585D01*
X173209585Y-65513375D01*
X173316604Y-65353210D01*
X173390320Y-65175243D01*
X173427900Y-64986315D01*
X173427900Y-64793685D01*
X173390320Y-64604757D01*
X173316604Y-64426790D01*
X173209585Y-64266625D01*
X173161200Y-64218240D01*
X173161200Y-57444928D01*
X173164640Y-57410000D01*
X173161200Y-57375071D01*
X173161200Y-57375064D01*
X173150909Y-57270580D01*
X173110242Y-57136519D01*
X173044202Y-57012967D01*
X173024843Y-56989378D01*
X172977597Y-56931809D01*
X172977593Y-56931805D01*
X172955326Y-56904673D01*
X172928195Y-56882407D01*
X162390036Y-46344248D01*
X169545000Y-46344248D01*
X169545000Y-47555751D01*
X169561423Y-47722498D01*
X169626324Y-47936446D01*
X169731716Y-48133623D01*
X169873551Y-48306449D01*
X170046377Y-48448284D01*
X170243553Y-48553676D01*
X170457501Y-48618577D01*
X170680000Y-48640491D01*
X170902498Y-48618577D01*
X171116446Y-48553676D01*
X171313623Y-48448284D01*
X171486449Y-48306449D01*
X171628284Y-48133623D01*
X171733676Y-47936447D01*
X171798577Y-47722499D01*
X171815000Y-47555752D01*
X171815000Y-47366904D01*
X171829978Y-47373108D01*
X172015448Y-47410000D01*
X172204552Y-47410000D01*
X172390022Y-47373108D01*
X172564731Y-47300741D01*
X172721964Y-47195681D01*
X172855681Y-47061964D01*
X172960741Y-46904731D01*
X173033108Y-46730022D01*
X173070000Y-46544552D01*
X173070000Y-46355448D01*
X176930000Y-46355448D01*
X176930000Y-46544552D01*
X176966892Y-46730022D01*
X177039259Y-46904731D01*
X177144319Y-47061964D01*
X177278036Y-47195681D01*
X177435269Y-47300741D01*
X177609978Y-47373108D01*
X177795448Y-47410000D01*
X177984552Y-47410000D01*
X178170022Y-47373108D01*
X178185000Y-47366904D01*
X178185000Y-47555751D01*
X178201423Y-47722498D01*
X178266324Y-47936446D01*
X178371716Y-48133623D01*
X178513551Y-48306449D01*
X178686377Y-48448284D01*
X178883553Y-48553676D01*
X179097501Y-48618577D01*
X179320000Y-48640491D01*
X179542498Y-48618577D01*
X179756446Y-48553676D01*
X179953623Y-48448284D01*
X180126449Y-48306449D01*
X180268284Y-48133623D01*
X180373676Y-47936447D01*
X180438577Y-47722499D01*
X180455000Y-47555752D01*
X180455000Y-46344248D01*
X180438577Y-46177501D01*
X180373676Y-45963553D01*
X180268284Y-45766377D01*
X180126449Y-45593551D01*
X179953623Y-45451716D01*
X179756447Y-45346324D01*
X179542499Y-45281423D01*
X179320000Y-45259509D01*
X179097502Y-45281423D01*
X178883554Y-45346324D01*
X178686378Y-45451716D01*
X178513552Y-45593551D01*
X178450738Y-45670090D01*
X178344731Y-45599259D01*
X178170022Y-45526892D01*
X177984552Y-45490000D01*
X177795448Y-45490000D01*
X177609978Y-45526892D01*
X177435269Y-45599259D01*
X177278036Y-45704319D01*
X177144319Y-45838036D01*
X177039259Y-45995269D01*
X176966892Y-46169978D01*
X176930000Y-46355448D01*
X173070000Y-46355448D01*
X173033108Y-46169978D01*
X172960741Y-45995269D01*
X172855681Y-45838036D01*
X172721964Y-45704319D01*
X172564731Y-45599259D01*
X172390022Y-45526892D01*
X172204552Y-45490000D01*
X172015448Y-45490000D01*
X171829978Y-45526892D01*
X171655269Y-45599259D01*
X171549263Y-45670090D01*
X171486449Y-45593551D01*
X171313623Y-45451716D01*
X171116447Y-45346324D01*
X170902499Y-45281423D01*
X170680000Y-45259509D01*
X170457502Y-45281423D01*
X170243554Y-45346324D01*
X170046378Y-45451716D01*
X169873552Y-45593551D01*
X169731717Y-45766377D01*
X169626324Y-45963553D01*
X169561423Y-46177501D01*
X169545000Y-46344248D01*
X162390036Y-46344248D01*
X161717900Y-45672113D01*
X161717900Y-45603685D01*
X161680320Y-45414757D01*
X161606604Y-45236790D01*
X161499585Y-45076625D01*
X161451206Y-45028246D01*
X161451206Y-44741766D01*
X161499591Y-44693381D01*
X161606610Y-44533216D01*
X161680326Y-44355249D01*
X161717906Y-44166321D01*
X161717906Y-43973691D01*
X161680326Y-43784763D01*
X161606610Y-43606796D01*
X161499591Y-43446631D01*
X161363381Y-43310421D01*
X161203216Y-43203402D01*
X161025249Y-43129686D01*
X160836321Y-43092106D01*
X160643691Y-43092106D01*
X160454763Y-43129686D01*
X160276796Y-43203402D01*
X160116631Y-43310421D01*
X159980421Y-43446631D01*
X159873402Y-43606796D01*
X159799686Y-43784763D01*
X159762106Y-43973691D01*
X159762106Y-44166321D01*
X159799686Y-44355249D01*
X159873402Y-44533216D01*
X159980421Y-44693381D01*
X160028806Y-44741766D01*
X160028807Y-45028233D01*
X159980415Y-45076625D01*
X159873396Y-45236790D01*
X159799680Y-45414757D01*
X159762100Y-45603685D01*
X120710000Y-45603685D01*
X120710000Y-42789721D01*
X120865000Y-42789721D01*
X120865000Y-43210279D01*
X120947047Y-43622756D01*
X121107988Y-44011302D01*
X121341637Y-44360983D01*
X121639017Y-44658363D01*
X121988698Y-44892012D01*
X122377244Y-45052953D01*
X122789721Y-45135000D01*
X123210279Y-45135000D01*
X123622756Y-45052953D01*
X124011302Y-44892012D01*
X124360983Y-44658363D01*
X124658363Y-44360983D01*
X124892012Y-44011302D01*
X125052953Y-43622756D01*
X125135000Y-43210279D01*
X125135000Y-42789721D01*
X125052953Y-42377244D01*
X125026860Y-42314248D01*
X169545000Y-42314248D01*
X169545000Y-43225751D01*
X169561423Y-43392498D01*
X169626324Y-43606446D01*
X169731716Y-43803623D01*
X169873551Y-43976449D01*
X170046377Y-44118284D01*
X170243553Y-44223676D01*
X170457501Y-44288577D01*
X170680000Y-44310491D01*
X170902498Y-44288577D01*
X171116446Y-44223676D01*
X171313623Y-44118284D01*
X171486449Y-43976449D01*
X171628284Y-43803623D01*
X171733676Y-43606447D01*
X171798577Y-43392499D01*
X171815000Y-43225752D01*
X171815000Y-42314249D01*
X171815000Y-42314248D01*
X178185000Y-42314248D01*
X178185000Y-43225751D01*
X178201423Y-43392498D01*
X178266324Y-43606446D01*
X178371716Y-43803623D01*
X178513551Y-43976449D01*
X178686377Y-44118284D01*
X178883553Y-44223676D01*
X179097501Y-44288577D01*
X179320000Y-44310491D01*
X179542498Y-44288577D01*
X179756446Y-44223676D01*
X179953623Y-44118284D01*
X180126449Y-43976449D01*
X180268284Y-43803623D01*
X180373676Y-43606447D01*
X180438577Y-43392499D01*
X180455000Y-43225752D01*
X180455000Y-42789721D01*
X194865000Y-42789721D01*
X194865000Y-43210279D01*
X194947047Y-43622756D01*
X195107988Y-44011302D01*
X195341637Y-44360983D01*
X195639017Y-44658363D01*
X195988698Y-44892012D01*
X196377244Y-45052953D01*
X196789721Y-45135000D01*
X197210279Y-45135000D01*
X197622756Y-45052953D01*
X198011302Y-44892012D01*
X198360983Y-44658363D01*
X198658363Y-44360983D01*
X198892012Y-44011302D01*
X199052953Y-43622756D01*
X199135000Y-43210279D01*
X199135000Y-42789721D01*
X199052953Y-42377244D01*
X198892012Y-41988698D01*
X198658363Y-41639017D01*
X198360983Y-41341637D01*
X198011302Y-41107988D01*
X197622756Y-40947047D01*
X197210279Y-40865000D01*
X196789721Y-40865000D01*
X196377244Y-40947047D01*
X195988698Y-41107988D01*
X195639017Y-41341637D01*
X195341637Y-41639017D01*
X195107988Y-41988698D01*
X194947047Y-42377244D01*
X194865000Y-42789721D01*
X180455000Y-42789721D01*
X180455000Y-42314249D01*
X180438577Y-42147502D01*
X180373676Y-41933553D01*
X180268284Y-41736377D01*
X180126449Y-41563551D01*
X179953623Y-41421716D01*
X179756447Y-41316324D01*
X179542499Y-41251423D01*
X179320000Y-41229509D01*
X179097502Y-41251423D01*
X178883554Y-41316324D01*
X178686378Y-41421716D01*
X178513552Y-41563551D01*
X178371717Y-41736377D01*
X178266324Y-41933553D01*
X178201423Y-42147501D01*
X178185000Y-42314248D01*
X171815000Y-42314248D01*
X171798577Y-42147502D01*
X171733676Y-41933553D01*
X171628284Y-41736377D01*
X171486449Y-41563551D01*
X171313623Y-41421716D01*
X171116447Y-41316324D01*
X170902499Y-41251423D01*
X170680000Y-41229509D01*
X170457502Y-41251423D01*
X170243554Y-41316324D01*
X170046378Y-41421716D01*
X169873552Y-41563551D01*
X169731717Y-41736377D01*
X169626324Y-41933553D01*
X169561423Y-42147501D01*
X169545000Y-42314248D01*
X125026860Y-42314248D01*
X124892012Y-41988698D01*
X124658363Y-41639017D01*
X124360983Y-41341637D01*
X124011302Y-41107988D01*
X123622756Y-40947047D01*
X123210279Y-40865000D01*
X122789721Y-40865000D01*
X122377244Y-40947047D01*
X121988698Y-41107988D01*
X121639017Y-41341637D01*
X121341637Y-41639017D01*
X121107988Y-41988698D01*
X120947047Y-42377244D01*
X120865000Y-42789721D01*
X120710000Y-42789721D01*
X120710000Y-41034722D01*
X120718863Y-40944335D01*
X120735030Y-40890786D01*
X120761288Y-40841403D01*
X120796641Y-40798055D01*
X120839740Y-40762400D01*
X120888937Y-40735799D01*
X120942375Y-40719258D01*
X121030455Y-40710000D01*
X198965278Y-40710000D01*
X199055665Y-40718863D01*
G36*
X161122100Y-70403685D02*
G01*
X161122100Y-70596315D01*
X161159680Y-70785243D01*
X161227924Y-70950000D01*
X161159680Y-71114757D01*
X161122100Y-71303685D01*
X161122100Y-71496315D01*
X161159680Y-71685243D01*
X161227924Y-71850000D01*
X161159680Y-72014757D01*
X161125061Y-72188800D01*
X152871760Y-72188800D01*
X152832960Y-72150000D01*
X152959585Y-72023375D01*
X153066604Y-71863210D01*
X153140320Y-71685243D01*
X153177900Y-71496315D01*
X153177900Y-71427887D01*
X154244590Y-70361198D01*
X161130551Y-70361198D01*
X161122100Y-70403685D01*
X161122100Y-70403685D01*
G37*
X161122100Y-70403685D02*
X161122100Y-70596315D01*
X161159680Y-70785243D01*
X161227924Y-70950000D01*
X161159680Y-71114757D01*
X161122100Y-71303685D01*
X161122100Y-71496315D01*
X161159680Y-71685243D01*
X161227924Y-71850000D01*
X161159680Y-72014757D01*
X161125061Y-72188800D01*
X152871760Y-72188800D01*
X152832960Y-72150000D01*
X152959585Y-72023375D01*
X153066604Y-71863210D01*
X153140320Y-71685243D01*
X153177900Y-71496315D01*
X153177900Y-71427887D01*
X154244590Y-70361198D01*
X161130551Y-70361198D01*
X161122100Y-70403685D01*
M02*
