M48
; DRILL file {KiCad (5.1.0)-1} date 4/9/2019 8:08:08 AM
; FORMAT={-:-/ absolute / inch / decimal}
; #@! TF.CreationDate,2019-04-09T08:08:08-05:00
; #@! TF.GenerationSoftware,Kicad,Pcbnew,(5.1.0)-1
FMAT,2
INCH
T1C0.0130
T2C0.0200
T3C0.0236
T4C0.0256
T5C0.0394
T6C0.1181
%
G90
G05
T1
X5.7874Y-2.4803
X5.7874Y-2.5197
X5.7874Y-2.5591
X5.7874Y-2.5984
X5.7874Y-2.6378
X5.9921Y-2.7402
X5.9921Y-2.7756
X5.9921Y-2.811
X5.9921Y-2.8701
X5.9921Y-2.9055
X5.9921Y-2.9409
X6.1408Y-2.4817
X6.141Y-2.5147
X6.1417Y-2.4487
X6.1417Y-2.3356
X6.1417Y-2.3686
X6.1417Y-2.4016
X6.2283Y-2.811
X6.2394Y-3.1
X6.2794Y-3.1
X6.3194Y-3.1
X6.3283Y-1.7992
X6.3283Y-1.735
X6.3646Y-3.0351
X6.3819Y-2.7756
X6.3819Y-2.811
X6.3819Y-2.8465
X6.4076Y-3.2033
X6.411Y-2.6181
X6.4469Y-2.6181
X6.4567Y-3.0709
X6.4823Y-2.6181
X6.4961Y-2.8878
X6.4961Y-2.9232
X6.4961Y-3.0709
X6.4961Y-2.8524
X6.5059Y-2.6713
X6.5059Y-2.7067
X6.5059Y-2.7421
X6.5157Y-2.4488
X6.5354Y-3.0709
X6.5492Y-2.4484
X6.5654Y-3.1791
X6.5827Y-2.4484
X6.6146Y-3.1787
X6.624Y-2.5787
X6.6579Y-3.1764
X6.6732Y-2.7882
X6.6732Y-2.8212
X6.6732Y-2.8547
X6.6831Y-2.5787
X6.6831Y-2.6319
X6.7031Y-3.2642
X6.7126Y-2.7886
X6.7732Y-3.2241
X6.7894Y-2.5547
X6.8398Y-3.2642
X6.8567Y-1.9685
X6.8898Y-1.9291
X6.9035Y-3.2224
X6.9571Y-1.978
X7.0957Y-2.0287
X7.3717Y-2.3161
X7.4713Y-2.1063
T2
X5.8661Y-2.0744
X5.8661Y-2.1236
X5.8661Y-2.1728
X5.9154Y-2.0744
X5.9154Y-2.1236
X5.9154Y-2.1728
X5.9646Y-2.0744
X5.9646Y-2.1236
X5.9646Y-2.1728
X6.0138Y-1.9268
X6.0138Y-2.0744
X6.0138Y-2.1236
X6.0138Y-2.1728
X6.0551Y-2.811
X6.063Y-1.9268
X6.063Y-2.0744
X6.063Y-2.1236
X6.063Y-2.1728
X6.1122Y-1.9268
X6.1122Y-2.0744
X6.1122Y-2.1236
X6.1122Y-2.1728
X6.1614Y-1.9268
X6.1614Y-2.0744
X6.1614Y-2.1236
X6.1614Y-2.1728
X6.185Y-3.3732
X6.185Y-3.4224
X6.185Y-3.4717
X6.185Y-3.5209
X6.185Y-3.5701
X6.185Y-3.6193
X6.185Y-3.6685
X6.185Y-3.7177
X6.185Y-3.7669
X6.2106Y-1.9268
X6.2343Y-3.3732
X6.2343Y-3.4224
X6.2343Y-3.4717
X6.2343Y-3.5209
X6.2343Y-3.5701
X6.2343Y-3.6193
X6.2343Y-3.6685
X6.2343Y-3.7177
X6.2343Y-3.7669
X6.2835Y-3.3732
X6.2835Y-3.4224
X6.2835Y-3.4717
X6.2835Y-3.5209
X6.2835Y-3.5701
X6.2835Y-3.6193
X6.2835Y-3.6685
X6.2835Y-3.7177
X6.2835Y-3.7669
X6.3091Y-2.1236
X6.3327Y-3.3732
X6.3327Y-3.4224
X6.3327Y-3.4717
X6.3327Y-3.5209
X6.3327Y-3.5701
X6.3327Y-3.6193
X6.3327Y-3.6685
X6.3327Y-3.7177
X6.3327Y-3.7669
X6.3819Y-3.3732
X6.3819Y-3.4224
X6.3819Y-3.4717
X6.3819Y-3.5209
X6.3819Y-3.5701
X6.3819Y-3.6193
X6.3819Y-3.6685
X6.3819Y-3.7177
X6.3819Y-3.7669
X6.4311Y-3.3732
X6.4311Y-3.4224
X6.4311Y-3.4717
X6.4311Y-3.5209
X6.4311Y-3.5701
X6.4311Y-3.6193
X6.4311Y-3.6685
X6.4311Y-3.7177
X6.4311Y-3.7669
X6.4803Y-3.3732
X6.4803Y-3.4224
X6.4803Y-3.4717
X6.4803Y-3.5209
X6.4803Y-3.5701
X6.4803Y-3.6193
X6.4803Y-3.6685
X6.4803Y-3.7177
X6.4803Y-3.7669
X6.5295Y-3.3732
X6.5295Y-3.4224
X6.5295Y-3.4717
X6.5295Y-3.5209
X6.5295Y-3.5701
X6.5295Y-3.6193
X6.5295Y-3.6685
X6.5295Y-3.7177
X6.5295Y-3.7669
X6.5772Y-2.2378
X6.5783Y-3.3737
X6.5787Y-3.4224
X6.5787Y-3.4717
X6.5787Y-3.5209
X6.5787Y-3.5701
X6.5787Y-3.6193
X6.5787Y-3.6685
X6.5787Y-3.7177
X6.5787Y-3.7669
X6.6362Y-3.3043
X6.7165Y-2.315
X6.7221Y-2.5055
X6.7476Y-3.0201
X6.8063Y-1.9909
X6.9211Y-2.4713
X6.9921Y-2.2343
X6.9921Y-2.2835
X6.9921Y-2.3327
X6.9921Y-2.3819
X7.0272Y-2.5495
X7.0413Y-2.2343
X7.0413Y-2.2835
X7.0413Y-2.3327
X7.0413Y-2.3819
X7.0827Y-1.9445
X7.0906Y-2.2343
X7.0906Y-2.2835
X7.0906Y-2.3327
X7.0906Y-2.3819
X7.0983Y-2.779
X7.0983Y-2.8282
X7.1398Y-2.2343
X7.1398Y-2.2835
X7.1398Y-2.3327
X7.1398Y-2.3819
X7.189Y-2.2343
X7.189Y-2.2835
X7.189Y-2.3327
X7.189Y-2.3819
X7.2835Y-3.2673
X7.6772Y-2.0669
X7.6772Y-2.1161
X7.6772Y-2.1654
X7.6772Y-2.2146
X7.6772Y-2.2638
X7.6772Y-2.313
X7.6772Y-2.3622
X7.6772Y-2.4114
X7.6772Y-2.4606
X7.6772Y-2.5098
X7.6772Y-2.5591
X7.6772Y-2.6083
X7.6772Y-2.6575
X7.6772Y-2.7067
X7.6772Y-2.7559
X7.6772Y-2.8051
X7.6772Y-2.8543
X7.6772Y-2.9035
X7.6772Y-2.9528
X7.6772Y-3.002
X7.6772Y-3.0512
X7.6772Y-3.1004
X7.6772Y-3.1496
X7.6772Y-3.1988
X7.6772Y-3.248
X7.6772Y-3.2972
X7.6772Y-3.3465
X7.6772Y-3.3957
X7.6772Y-3.4449
X7.7264Y-2.0669
X7.7264Y-2.1161
X7.7264Y-2.1654
X7.7264Y-2.2146
X7.7264Y-2.2638
X7.7264Y-2.313
X7.7264Y-2.3622
X7.7264Y-2.4114
X7.7264Y-2.4606
X7.7264Y-2.5098
X7.7264Y-2.5591
X7.7264Y-2.6083
X7.7264Y-2.6575
X7.7264Y-2.7067
X7.7264Y-2.7559
X7.7264Y-2.8051
X7.7264Y-2.8543
X7.7264Y-2.9035
X7.7264Y-2.9528
X7.7264Y-3.002
X7.7264Y-3.0512
X7.7264Y-3.1004
X7.7264Y-3.1496
X7.7264Y-3.1988
X7.7264Y-3.248
X7.7264Y-3.2972
X7.7264Y-3.3465
X7.7264Y-3.3957
X7.7264Y-3.4449
X7.7756Y-2.0669
X7.7756Y-2.1161
X7.7756Y-2.1654
X7.7756Y-2.2146
X7.7756Y-2.2638
X7.7756Y-2.313
X7.7756Y-2.3622
X7.7756Y-2.4114
X7.7756Y-2.4606
X7.7756Y-2.5098
X7.7756Y-2.5591
X7.7756Y-2.6083
X7.7756Y-2.6575
X7.7756Y-2.7067
X7.7756Y-2.7559
X7.7756Y-2.8051
X7.7756Y-2.8543
X7.7756Y-2.9035
X7.7756Y-2.9528
X7.7756Y-3.002
X7.7756Y-3.0512
X7.7756Y-3.1004
X7.7756Y-3.1496
X7.7756Y-3.1988
X7.7756Y-3.248
X7.7756Y-3.2972
X7.7756Y-3.3465
X7.7756Y-3.3957
X7.7756Y-3.4449
T4
X6.776Y-1.8287
X7.0035Y-1.8287
T5
X6.8197Y-3.7677
X7.1339Y-3.7677
T6
X7.7559Y-3.8189
X7.7559Y-1.6929
X4.8425Y-1.6929
X4.8425Y-3.8189
T3
G00X6.7197Y-1.6996
M15
G01X6.7197Y-1.6681
M16
G05
G00X6.7197Y-1.8701
M15
G01X6.7197Y-1.8268
M16
G05
G00X7.0598Y-1.6996
M15
G01X7.0598Y-1.6681
M16
G05
G00X7.0598Y-1.8701
M15
G01X7.0598Y-1.8268
M16
G05
T0
M30
