G04 #@! TF.GenerationSoftware,KiCad,Pcbnew,(5.1.0)-1*
G04 #@! TF.CreationDate,2019-04-09T08:08:05-05:00*
G04 #@! TF.ProjectId,prelude,7072656c-7564-4652-9e6b-696361645f70,rev?*
G04 #@! TF.SameCoordinates,Original*
G04 #@! TF.FileFunction,Legend,Bot*
G04 #@! TF.FilePolarity,Positive*
%FSLAX46Y46*%
G04 Gerber Fmt 4.6, Leading zero omitted, Abs format (unit mm)*
G04 Created by KiCad (PCBNEW (5.1.0)-1) date 2019-04-09 08:08:05*
%MOMM*%
%LPD*%
G04 APERTURE LIST*
%ADD10C,0.300000*%
G04 APERTURE END LIST*
D10*
X128321428Y-50250000D02*
X129321428Y-50250000D01*
X129035714Y-50250000D02*
X129178571Y-50178571D01*
X129250000Y-50107142D01*
X129321428Y-49964285D01*
X129321428Y-49821428D01*
X128392857Y-48750000D02*
X128321428Y-48892857D01*
X128321428Y-49178571D01*
X128392857Y-49321428D01*
X128535714Y-49392857D01*
X129107142Y-49392857D01*
X129250000Y-49321428D01*
X129321428Y-49178571D01*
X129321428Y-48892857D01*
X129250000Y-48750000D01*
X129107142Y-48678571D01*
X128964285Y-48678571D01*
X128821428Y-49392857D01*
X129321428Y-48178571D02*
X128321428Y-47821428D01*
X129321428Y-47464285D01*
X128750000Y-45821428D02*
X128750000Y-45107142D01*
X128321428Y-45964285D02*
X129821428Y-45464285D01*
X128321428Y-44964285D01*
X129821428Y-44178571D02*
X129821428Y-44035714D01*
X129750000Y-43892857D01*
X129678571Y-43821428D01*
X129535714Y-43750000D01*
X129250000Y-43678571D01*
X128892857Y-43678571D01*
X128607142Y-43750000D01*
X128464285Y-43821428D01*
X128392857Y-43892857D01*
X128321428Y-44035714D01*
X128321428Y-44178571D01*
X128392857Y-44321428D01*
X128464285Y-44392857D01*
X128607142Y-44464285D01*
X128892857Y-44535714D01*
X129250000Y-44535714D01*
X129535714Y-44464285D01*
X129678571Y-44392857D01*
X129750000Y-44321428D01*
X129821428Y-44178571D01*
X132321428Y-51642857D02*
X133821428Y-51642857D01*
X133821428Y-51071428D01*
X133750000Y-50928571D01*
X133678571Y-50857142D01*
X133535714Y-50785714D01*
X133321428Y-50785714D01*
X133178571Y-50857142D01*
X133107142Y-50928571D01*
X133035714Y-51071428D01*
X133035714Y-51642857D01*
X132321428Y-49285714D02*
X133035714Y-49785714D01*
X132321428Y-50142857D02*
X133821428Y-50142857D01*
X133821428Y-49571428D01*
X133750000Y-49428571D01*
X133678571Y-49357142D01*
X133535714Y-49285714D01*
X133321428Y-49285714D01*
X133178571Y-49357142D01*
X133107142Y-49428571D01*
X133035714Y-49571428D01*
X133035714Y-50142857D01*
X133107142Y-48642857D02*
X133107142Y-48142857D01*
X132321428Y-47928571D02*
X132321428Y-48642857D01*
X133821428Y-48642857D01*
X133821428Y-47928571D01*
X132321428Y-46571428D02*
X132321428Y-47285714D01*
X133821428Y-47285714D01*
X133821428Y-46071428D02*
X132607142Y-46071428D01*
X132464285Y-46000000D01*
X132392857Y-45928571D01*
X132321428Y-45785714D01*
X132321428Y-45500000D01*
X132392857Y-45357142D01*
X132464285Y-45285714D01*
X132607142Y-45214285D01*
X133821428Y-45214285D01*
X132321428Y-44500000D02*
X133821428Y-44500000D01*
X133821428Y-44142857D01*
X133750000Y-43928571D01*
X133607142Y-43785714D01*
X133464285Y-43714285D01*
X133178571Y-43642857D01*
X132964285Y-43642857D01*
X132678571Y-43714285D01*
X132535714Y-43785714D01*
X132392857Y-43928571D01*
X132321428Y-44142857D01*
X132321428Y-44500000D01*
X133107142Y-43000000D02*
X133107142Y-42500000D01*
X132321428Y-42285714D02*
X132321428Y-43000000D01*
X133821428Y-43000000D01*
X133821428Y-42285714D01*
M02*
